# Blender v2.92.0 OBJ File: 'Cacodemon64.blend'
# www.blender.org
mtllib Cacodemon64.mtl
o Cube
v 0.822668 0.822668 0.822668
v -0.822668 0.822668 0.822668
v -0.915580 -0.822668 1.058092
v -1.083818 -0.942667 0.651019
v -1.009359 -0.488089 1.113095
v -1.025103 -0.000000 1.058047
v -0.942667 0.488089 0.942667
v 0.942667 0.488089 0.942667
v 0.488089 0.942667 0.942667
v -0.000000 1.002944 1.002944
v -0.488089 0.942667 0.942667
v 0.942667 0.942667 0.488089
v -0.545904 -0.942667 1.257340
v 0.000000 -1.002944 1.363528
v -0.942667 0.942667 0.488089
v 0.520185 1.199434 0.520185
v -0.000000 1.286371 0.548128
v -0.520185 1.199434 0.520185
v 0.520185 0.520185 1.199434
v -0.000000 -0.548128 1.550046
v 0.000000 0.000000 1.469398
v -0.000000 0.548128 1.286371
v -0.553612 -0.520185 1.432063
v -0.559494 0.000000 1.363237
v -0.520185 0.520185 1.199434
v -1.305554 -0.520185 0.621074
v -1.321817 -0.000000 0.580881
v -1.199434 0.520185 0.520185
v -0.622398 -1.199434 0.762026
v 0.000000 -1.286371 0.840015
v 0.168824 -0.822668 1.136820
v 1.321817 0.000000 0.580881
v 0.345454 0.000000 1.139333
v 0.295103 -0.488089 1.201246
v 0.322820 -0.942667 0.723036
v 0.661530 0.000000 0.646806
v 0.992236 -0.942667 0.662499
v 0.921402 -0.488089 1.128722
v 0.823309 -0.822668 1.072865
v 0.783126 -0.488089 1.150675
v 0.678373 -0.822668 1.093453
v 0.847005 -0.942667 0.679327
v 0.810018 0.000000 1.092399
v 0.941483 0.000000 1.072358
v 1.242853 0.000000 0.591122
v 1.117411 0.000000 0.606029
v -0.993525 0.154390 1.007420
v 0.993525 0.154390 1.007420
v 0.544400 0.164542 1.291970
v 0.000000 0.173381 1.389230
v -0.544400 0.164542 1.291970
v -1.274213 0.164542 0.553468
v 1.274213 0.164542 0.553468
v 0.749783 0.794194 0.794183
v 0.869782 0.459615 0.914182
v 0.869782 0.914193 0.459604
v 1.121991 0.491329 0.515455
v 1.213946 0.136068 0.536707
v 0.928583 0.125916 1.000272
v 0.998165 0.702952 0.475652
v 1.161940 0.313890 0.506515
v 1.265785 0.140488 0.269878
v 0.929917 0.896196 0.229802
v 1.157588 0.504945 0.522502
v 1.191864 0.327505 0.508300
v 1.033762 0.716568 0.482700
v 0.965514 0.909811 0.236850
v 1.295442 0.154103 0.274357
v 0.924393 0.000514 1.128731
v 0.964906 -0.523255 1.191712
v 0.830289 -0.935671 1.130804
v 0.998527 -1.055670 0.649081
v 0.553612 -0.520185 1.432063
v 0.559493 -0.000000 1.363237
v 0.545904 -0.942667 1.257340
v 0.622398 -1.199434 0.762025
v 0.464778 1.057130 1.287382
v -0.072213 -0.131533 1.782071
v 0.144318 1.096706 1.326957
v 0.485851 0.779745 1.455965
v 0.144318 0.798092 1.513044
v 0.450022 1.521426 1.703927
v 0.307797 1.538990 1.721491
v 0.459374 1.398318 1.778747
v 0.307797 1.406461 1.804079
v 0.924922 1.370432 0.996659
v -0.074648 -0.613125 1.851906
v 0.275082 -0.594648 1.691743
v 0.280111 -0.137716 1.631228
v 0.404045 -0.054278 2.477216
v 0.437256 -0.452087 2.506967
v 0.604799 -0.432128 2.132832
v 0.578153 -0.054694 2.103682
v 1.120080 0.013654 2.807011
v 1.153291 -0.384156 2.836761
v 1.320834 -0.364196 2.462627
v 1.294188 0.013238 2.433477
v 1.343106 -0.028299 2.852120
v 1.364741 -0.287454 2.871501
v 1.473888 -0.274451 2.627769
v 1.456530 -0.028570 2.608780
v 1.657989 -0.397028 2.951711
v 1.643444 -0.222796 2.938681
v 1.719699 -0.222978 2.775082
v 1.731369 -0.388286 2.787848
v 1.609438 -0.449099 2.260221
v 1.591602 -0.196452 2.240710
v 1.711890 -0.389025 2.370764
v 1.700270 -0.224437 2.358053
v 1.140383 -0.439258 3.112013
v 1.116750 -0.156177 3.090843
v 1.290851 -0.370445 3.136734
v 1.275455 -0.186030 3.122942
v 1.092911 -0.716535 2.901690
v 1.092911 0.091334 2.901690
v 1.092911 -0.716535 2.285924
v 1.092911 0.091334 2.285924
v 1.092911 -0.610176 2.366992
v 1.092911 -0.610176 2.820621
v 1.092911 -0.015025 2.820621
v 1.092911 -0.015025 2.366992
v 1.355689 -1.252036 2.764799
v 1.355689 -0.429392 2.764799
v 0.830133 -1.252036 2.422815
v 0.830133 -0.429392 2.422815
v 0.899324 -1.143731 2.467839
v 1.286497 -1.143731 2.719775
v 1.286497 -0.537697 2.719775
v 0.899324 -0.537697 2.467839
v 0.822668 0.822668 -0.822668
v -0.822668 0.822668 -0.822668
v -0.915580 -0.822668 -1.058092
v -1.178473 -1.002944 0.000000
v -1.083818 -0.942667 -0.651019
v -1.009359 -0.488089 -1.113095
v -1.025103 -0.000000 -1.058047
v -0.942667 0.488089 -0.942667
v 0.942667 0.488089 -0.942667
v 0.488089 0.942667 -0.942667
v -0.000000 1.002944 -1.002944
v -0.488089 0.942667 -0.942667
v 1.002944 1.002944 0.000000
v 0.942667 0.942667 -0.488089
v -0.545904 -0.942667 -1.257340
v 0.000000 -1.002944 -1.363528
v -0.942667 0.942667 -0.488089
v -1.002944 1.002944 0.000000
v 1.093182 -1.115947 0.000000
v 0.548128 1.286371 0.000000
v -0.000000 1.381270 0.000000
v -0.548128 1.286371 0.000000
v 0.520185 1.199434 -0.520185
v -0.000000 1.286371 -0.548128
v -0.520185 1.199434 -0.520185
v 0.520185 0.520185 -1.199434
v -0.000000 -0.548128 -1.550046
v 0.000000 0.000000 -1.469398
v -0.000000 0.548128 -1.286371
v -0.553612 -0.520185 -1.432063
v -0.559494 0.000000 -1.363237
v -0.520185 0.520185 -1.199434
v -1.305554 -0.520185 -0.621074
v -1.321817 -0.000000 -0.580881
v -1.199434 0.520185 -0.520185
v -1.414725 -0.548128 0.000000
v -1.424170 0.000000 0.000000
v -1.286371 0.548128 0.000000
v -0.690215 -1.286371 0.000000
v 0.000000 -1.381270 0.000000
v 0.690216 -1.286371 0.000000
v -0.622398 -1.199434 -0.762026
v 0.000000 -1.286371 -0.840015
v 0.168824 -0.822668 -1.136820
v 1.424170 0.000000 0.000000
v 1.321817 0.000000 -0.580881
v 0.345454 0.000000 -1.139333
v 0.295103 -0.488089 -1.201246
v 0.322820 -0.942667 -0.723036
v 0.416165 -1.002944 0.000000
v 0.774775 0.000000 0.000000
v 0.661530 0.000000 -0.646806
v 1.088544 -1.002944 0.000000
v 0.992236 -0.942667 -0.662499
v 1.347424 0.000000 0.000000
v 0.921402 -0.488089 -1.128722
v 0.823309 -0.822668 -1.072865
v 0.945190 -1.002944 0.000000
v 1.225005 0.000000 0.000000
v 0.783126 -0.488089 -1.150675
v 0.678373 -0.822668 -1.093453
v 0.847005 -0.942667 -0.679327
v 0.810018 0.000000 -1.092399
v 0.941483 0.000000 -1.072358
v 1.242853 0.000000 -0.591122
v 1.117411 0.000000 -0.606029
v -0.993525 0.154390 -1.007420
v 0.993525 0.154390 -1.007420
v 0.544400 0.164542 -1.291970
v 0.000000 0.173381 -1.389230
v -0.544400 0.164542 -1.291970
v -1.274213 0.164542 -0.553468
v -1.369740 0.173381 0.000000
v 1.369740 0.173381 0.000000
v 1.274213 0.164542 -0.553468
v 1.062938 0.906673 0.000000
v 0.749783 0.794194 -0.794183
v 0.869782 0.459615 -0.914182
v 0.869782 0.914193 -0.459604
v 1.310256 0.144907 0.000000
v 1.121991 0.491329 -0.515455
v 1.213946 0.136068 -0.536707
v 0.990052 0.878199 0.000000
v 0.928583 0.125916 -1.000272
v 0.998165 0.702952 -0.475652
v 1.161940 0.313890 -0.506515
v 1.265785 0.140488 -0.269878
v 0.929917 0.896196 -0.229802
v 1.339579 0.158523 0.000000
v 1.249083 0.533270 0.000000
v 1.157588 0.504945 -0.522502
v 1.191864 0.327505 -0.508300
v 1.025649 0.891814 0.000000
v 1.033762 0.716568 -0.482700
v 0.965514 0.909811 -0.236850
v 1.295442 0.154103 -0.274357
v 0.924393 0.000514 -1.128731
v 0.964906 -0.523255 -1.191712
v 0.830289 -0.935671 -1.130804
v 0.998527 -1.055670 -0.649081
v 0.553612 -0.520185 -1.432063
v 0.559493 -0.000000 -1.363237
v 0.545904 -0.942667 -1.257340
v 0.622398 -1.199434 -0.762025
v 0.464778 1.057130 -1.287382
v -0.072213 -0.131533 -1.782071
v 0.144318 1.096706 -1.326957
v 0.485851 0.779745 -1.455965
v 0.144318 0.798092 -1.513044
v 0.450022 1.521426 -1.703927
v 0.307797 1.538990 -1.721491
v 0.459374 1.398318 -1.778747
v 0.307797 1.406461 -1.804079
v 0.924922 1.370432 -0.996659
v -0.074648 -0.613125 -1.851906
v 0.275082 -0.594648 -1.691743
v 0.280111 -0.137716 -1.631228
v 0.404045 -0.054278 -2.477216
v 0.437255 -0.452087 -2.506967
v 0.604799 -0.432128 -2.132832
v 0.578153 -0.054694 -2.103682
v 1.120080 0.013654 -2.807011
v 1.153291 -0.384156 -2.836761
v 1.320834 -0.364196 -2.462627
v 1.294188 0.013238 -2.433477
v 1.343106 -0.028299 -2.852120
v 1.364741 -0.287454 -2.871501
v 1.473888 -0.274451 -2.627769
v 1.456530 -0.028570 -2.608780
v 1.657989 -0.397028 -2.951711
v 1.643444 -0.222796 -2.938681
v 1.719699 -0.222978 -2.775082
v 1.731369 -0.388286 -2.787848
v 1.609438 -0.449099 -2.260221
v 1.591602 -0.196452 -2.240710
v 1.711890 -0.389025 -2.370764
v 1.700270 -0.224437 -2.358053
v 1.140383 -0.439258 -3.112013
v 1.116750 -0.156177 -3.090843
v 1.290851 -0.370445 -3.136734
v 1.275455 -0.186030 -3.122942
v 1.092911 -0.716535 -2.901690
v 1.092911 0.091334 -2.901690
v 1.092911 -0.716535 -2.285924
v 1.092911 0.091334 -2.285924
v 1.092911 -0.610176 -2.366992
v 1.092911 -0.610176 -2.820621
v 1.092911 -0.015025 -2.820621
v 1.092911 -0.015025 -2.366992
v 1.355689 -1.252036 -2.764799
v 1.355689 -0.429392 -2.764799
v 0.830133 -1.252036 -2.422815
v 0.830133 -0.429392 -2.422815
v 0.899325 -1.143731 -2.467839
v 1.286497 -1.143731 -2.719775
v 1.286497 -0.537697 -2.719775
v 0.899325 -0.537697 -2.467839
v 0.941483 -0.379675 1.072358
v 1.242853 -0.379675 0.591122
v 1.347424 -0.379675 0.000000
v 0.941483 -0.379675 -1.072358
v 1.242853 -0.379675 -0.591122
v 0.678373 -0.504766 1.093453
v 0.847005 -0.465935 0.679327
v 0.945190 -0.434485 0.000000
v 0.678373 -0.504766 -1.093453
v 0.847005 -0.465935 -0.679327
vt 0.391078 0.214523
vt 0.333722 0.289517
vt 0.321934 0.223473
vt 0.461005 0.206656
vt 0.399778 0.284586
vt 0.519872 0.201297
vt 0.465703 0.273558
vt 0.519872 0.264472
vt 0.469094 0.329101
vt 0.407840 0.343890
vt 0.345257 0.344076
vt 0.301488 0.334673
vt 0.280699 0.293393
vt 0.265405 0.232067
vt 0.368592 0.826000
vt 0.423300 0.800193
vt 0.438019 0.839938
vt 0.204595 0.232836
vt 0.135913 0.199444
vt 0.206059 0.194117
vt 0.134866 0.182097
vt 0.063106 0.117955
vt 0.132811 0.119720
vt 0.137665 0.240008
vt 0.067135 0.194161
vt 0.260281 0.217761
vt 0.265405 0.180467
vt 0.246739 0.252754
vt 0.140944 0.282323
vt 0.071850 0.232878
vt 0.017385 0.221596
vt 0.069163 0.231240
vt 0.054721 0.270537
vt 0.011870 0.180547
vt 0.064250 0.177489
vt 0.007360 0.107919
vt 0.018829 0.065294
vt 0.064227 0.059544
vt 0.132948 0.056907
vt 0.204381 0.117911
vt 0.203535 0.059500
vt 0.133966 0.594718
vt 0.196882 0.513551
vt 0.200670 0.593940
vt 0.067212 0.594587
vt 0.105099 0.522520
vt 0.112767 0.593744
vt 0.202690 0.660300
vt 0.255100 0.595511
vt 0.244771 0.650567
vt 0.139900 0.658826
vt 0.076544 0.650902
vt 0.119703 0.654595
vt 0.032727 0.641059
vt 0.013411 0.598582
vt 0.057509 0.527911
vt 0.255100 0.511126
vt 0.399209 0.459874
vt 0.471721 0.389369
vt 0.487883 0.454288
vt 0.313567 0.481011
vt 0.390817 0.386787
vt 0.216207 0.007025
vt 0.135993 0.000000
vt 0.057379 0.007075
vt 0.000000 0.033119
vt 0.535399 0.412160
vt 0.554067 0.468059
vt 0.039171 0.714990
vt 0.082923 0.772448
vt 0.025432 0.774179
vt 0.794888 0.382594
vt 0.744496 0.339232
vt 0.806714 0.339255
vt 0.658062 0.732897
vt 0.667202 0.733008
vt 0.659417 0.754028
vt 0.748350 0.282231
vt 0.807580 0.282204
vt 0.694568 0.892614
vt 0.738865 0.949868
vt 0.730469 0.950617
vt 0.682331 0.821877
vt 0.690029 0.822042
vt 0.695727 0.856535
vt 0.981781 0.173963
vt 0.986869 0.210839
vt 0.976519 0.212234
vt 0.143962 0.806753
vt 0.223284 0.898638
vt 0.156302 0.893141
vt 0.078423 0.666638
vt 0.097383 0.709283
vt 0.242552 0.950729
vt 0.177440 0.945274
vt 0.682331 0.605960
vt 0.700629 0.661200
vt 0.684901 0.665297
vt 0.063821 0.663597
vt 0.023153 0.716918
vt 0.013070 0.718215
vt 0.692222 0.526223
vt 0.696085 0.610664
vt 0.733924 0.687083
vt 0.802593 0.686631
vt 0.801193 0.693246
vt 0.740281 0.679446
vt 0.009800 0.774650
vt 0.000000 0.774944
vt 0.824327 0.339565
vt 0.824327 0.282466
vt 0.813355 0.382823
vt 0.061636 0.877091
vt 0.039171 0.832541
vt 0.078423 0.878530
vt 0.127095 0.519833
vt 0.034787 0.151940
vt 0.059137 0.183129
vt 0.019476 0.170773
vt 0.207025 0.177444
vt 0.855967 0.187690
vt 0.851261 0.128570
vt 0.863620 0.127344
vt 0.974844 0.412271
vt 0.980854 0.387004
vt 0.984642 0.386787
vt 0.906469 0.332628
vt 0.870218 0.340153
vt 0.858000 0.295441
vt 0.905374 0.282222
vt 0.851261 0.251568
vt 0.990830 0.249975
vt 0.980481 0.251370
vt 0.672678 0.689994
vt 0.935609 0.263500
vt 0.903325 0.259015
vt 0.935609 0.361162
vt 0.907779 0.360118
vt 0.978686 0.033515
vt 0.991108 0.062741
vt 0.986513 0.062695
vt 0.314532 0.413466
vt 0.265405 0.502776
vt 0.270665 0.443399
vt 0.240759 0.054811
vt 0.265405 0.019366
vt 0.258598 0.107042
vt 0.264761 0.792425
vt 0.243518 0.725675
vt 0.264587 0.721230
vt 0.264103 0.660300
vt 0.244510 0.674184
vt 0.255290 0.167262
vt 0.846448 0.997275
vt 0.802593 0.997275
vt 0.805094 0.923480
vt 0.910662 0.251568
vt 0.824824 0.019473
vt 0.800716 0.109098
vt 0.780808 0.040809
vt 0.787771 0.000000
vt 0.730642 0.045063
vt 0.554067 0.881969
vt 0.642493 0.915375
vt 0.609011 0.928977
vt 0.166755 0.120297
vt 0.505181 0.929968
vt 0.550996 0.829457
vt 0.550996 0.921443
vt 0.362292 0.788106
vt 0.438019 0.706503
vt 0.130843 0.884243
vt 0.082512 0.947466
vt 0.071989 0.882536
vt 0.601081 0.890695
vt 0.642493 0.834926
vt 0.822496 0.220315
vt 0.841249 0.262117
vt 0.808427 0.245679
vt 0.284620 0.963325
vt 0.310171 0.867382
vt 0.329385 0.960442
vt 0.851261 0.123655
vt 0.771951 0.205757
vt 0.598857 0.840973
vt 0.606882 0.747858
vt 0.773937 0.993732
vt 0.801802 0.950513
vt 0.801802 0.984921
vt 0.170839 0.994836
vt 0.196440 0.950729
vt 0.196440 0.991288
vt 0.775499 0.236195
vt 0.563246 0.753905
vt 0.586661 0.729965
vt 0.873438 0.361162
vt 0.892438 0.385086
vt 0.873445 0.382391
vt 0.770777 0.275828
vt 0.558234 0.733905
vt 0.576494 0.689994
vt 0.966013 0.962824
vt 0.991911 0.936626
vt 0.991911 0.978671
vt 0.359905 0.843338
vt 0.329385 0.849301
vt 0.329700 0.831524
vt 0.330509 0.880568
vt 0.349062 0.856997
vt 0.359905 0.892066
vt 0.265405 0.870265
vt 0.329385 0.831524
vt 0.729905 0.218576
vt 0.944435 0.666569
vt 0.924678 0.636849
vt 0.944435 0.633393
vt 0.622271 0.980032
vt 0.588102 0.953580
vt 0.622271 0.928977
vt 0.632764 0.730164
vt 0.992766 0.873453
vt 0.973728 0.925972
vt 0.966013 0.893237
vt 0.510215 0.309434
vt 0.203498 0.272428
vt 0.078944 0.272467
vt 0.067331 0.271662
vt 0.028787 0.252625
vt 0.014907 0.216228
vt 0.019724 0.217837
vt 0.007059 0.164196
vt 0.000000 0.536676
vt 0.729905 0.382948
vt 0.651632 0.775048
vt 0.642493 0.777699
vt 0.702366 0.890638
vt 0.990830 0.173031
vt 0.211562 0.806666
vt 0.137744 0.660300
vt 0.061636 0.669087
vt 0.706338 0.529308
vt 0.096521 0.432732
vt 0.098604 0.393763
vt 0.112953 0.391724
vt 0.086932 0.500000
vt 0.082143 0.434398
vt 0.082143 0.565602
vt 0.096521 0.567268
vt 0.098604 0.606237
vt 0.112953 0.608276
vt 0.971029 0.412923
vt 0.902283 0.304740
vt 0.681817 0.690105
vt 0.983276 0.032661
vt 0.242552 0.793552
vt 0.169061 0.172588
vt 0.505181 0.837982
vt 0.387451 0.699639
vt 0.130843 0.950850
vt 0.851261 0.244069
vt 0.783068 0.956437
vt 0.179303 0.953104
vt 0.892438 0.362709
vt 0.792914 0.282204
vt 0.557382 0.692643
vt 0.974500 0.925972
vt 0.299420 0.833454
vt 0.732280 0.238950
vt 0.924678 0.658461
vt 0.588102 0.989911
vt 0.618374 0.717431
vt 0.992766 0.911894
vt 0.317953 0.157563
vt 0.383162 0.145543
vt 0.449934 0.141604
vt 0.505075 0.140660
vt 0.440517 0.089977
vt 0.377436 0.089475
vt 0.316680 0.104951
vt 0.265902 0.169580
vt 0.276549 0.125989
vt 0.444054 0.713897
vt 0.513421 0.699639
vt 0.498971 0.741221
vt 0.666101 0.194060
vt 0.619378 0.199079
vt 0.613833 0.129308
vt 0.589596 0.130182
vt 0.519872 0.133266
vt 0.525190 0.062603
vt 0.663408 0.127288
vt 0.613908 0.060000
vt 0.674579 0.248691
vt 0.631762 0.257035
vt 0.719362 0.231611
vt 0.729906 0.125130
vt 0.660874 0.061167
vt 0.722546 0.063250
vt 0.665107 0.007865
vt 0.621778 0.003217
vt 0.591023 0.058911
vt 0.539527 0.004788
vt 0.499766 0.657566
vt 0.489982 0.606280
vt 0.536231 0.589775
vt 0.430803 0.677351
vt 0.421337 0.622131
vt 0.359950 0.679000
vt 0.352112 0.627416
vt 0.120503 0.447445
vt 0.186277 0.436478
vt 0.055157 0.462703
vt 0.099941 0.453421
vt 0.176894 0.378094
vt 0.220250 0.382306
vt 0.240012 0.430456
vt 0.115379 0.390576
vt 0.054697 0.411905
vt 0.096356 0.399181
vt 0.013662 0.432485
vt 0.002099 0.474835
vt 0.489697 0.536080
vt 0.410633 0.548513
vt 0.332508 0.560177
vt 0.550756 0.537499
vt 0.584362 0.262563
vt 0.596886 0.301055
vt 0.535207 0.295371
vt 0.658062 0.827571
vt 0.659417 0.798602
vt 0.667202 0.822157
vt 0.597735 0.362419
vt 0.539009 0.357060
vt 0.694568 0.751217
vt 0.730469 0.693246
vt 0.738865 0.694324
vt 0.695727 0.787589
vt 0.718020 0.348212
vt 0.713404 0.305089
vt 0.723229 0.304856
vt 0.156302 0.719590
vt 0.223284 0.713921
vt 0.097383 0.834743
vt 0.177440 0.665924
vt 0.242552 0.660301
vt 0.718163 0.446095
vt 0.747327 0.386786
vt 0.759857 0.396960
vt 0.063821 0.882536
vt 0.013070 0.830887
vt 0.023153 0.831577
vt 0.732659 0.447494
vt 0.431508 0.908154
vt 0.430542 0.840760
vt 0.437961 0.839938
vt 0.998197 0.228428
vt 0.990830 0.178449
vt 0.998197 0.173031
vt 0.614287 0.302995
vt 0.614287 0.364227
vt 0.602626 0.264492
vt 0.600866 0.000000
vt 0.596645 0.201846
vt 0.855967 0.064491
vt 0.976379 0.438477
vt 0.972453 0.439553
vt 0.683144 0.284168
vt 0.624655 0.314252
vt 0.638038 0.271567
vt 0.681789 0.334050
vt 0.614287 0.356819
vt 0.717115 0.257268
vt 0.726939 0.257035
vt 0.672678 0.849566
vt 0.713405 0.356819
vt 0.678669 0.356789
vt 0.682976 0.257035
vt 0.713163 0.259868
vt 0.979096 0.092222
vt 0.285977 0.568365
vt 0.314821 0.621313
vt 0.305129 0.663574
vt 0.264761 0.867850
vt 0.243683 0.865376
vt 0.264440 0.945204
vt 0.244811 0.928467
vt 0.607902 0.248888
vt 0.542041 0.257035
vt 0.935609 0.322554
vt 0.982193 0.251568
vt 0.982193 0.324640
vt 0.910662 0.000000
vt 0.896659 0.648708
vt 0.852700 0.627084
vt 0.873951 0.558385
vt 0.860638 0.666794
vt 0.803795 0.621315
vt 0.442752 0.699639
vt 0.071989 0.982670
vt 0.006356 0.968817
vt 0.000000 0.929690
vt 0.973865 0.626138
vt 0.924678 0.633393
vt 0.924678 0.542930
vt 0.438019 0.753649
vt 0.513421 0.823172
vt 0.057652 0.941863
vt 0.024095 0.882536
vt 0.901789 0.887454
vt 0.872673 0.923480
vt 0.825415 0.833234
vt 0.897279 0.446946
vt 0.883000 0.421835
vt 0.914517 0.406954
vt 0.971029 0.535675
vt 0.924678 0.529986
vt 0.924678 0.435796
vt 0.924678 0.544263
vt 0.846552 0.461068
vt 0.865005 0.826993
vt 0.824011 0.733614
vt 0.991765 0.385079
vt 0.970245 0.363566
vt 0.977297 0.324640
vt 0.863601 0.727374
vt 0.848929 0.700427
vt 0.891968 0.685010
vt 0.849954 0.431035
vt 0.823138 0.704492
vt 0.851261 0.384770
vt 0.851356 0.363574
vt 0.873438 0.361162
vt 0.843720 0.392972
vt 0.838290 0.669527
vt 0.824327 0.303270
vt 0.848938 0.282204
vt 0.848938 0.329126
vt 0.956648 0.404448
vt 0.925622 0.400640
vt 0.928942 0.386787
vt 0.359368 0.986007
vt 0.329385 0.995714
vt 0.339298 0.952320
vt 0.971029 0.441485
vt 0.802593 0.449597
vt 0.736221 0.950617
vt 0.736221 0.986012
vt 0.716557 0.979262
vt 0.935609 0.375635
vt 0.935609 0.324640
vt 0.970245 0.348714
vt 0.803214 0.726174
vt 0.357243 0.945822
vt 0.329385 0.927738
vt 0.337419 0.892066
vt 0.485276 0.100749
vt 0.727450 0.187943
vt 0.711095 0.021442
vt 0.554067 0.620668
vt 0.519872 0.257035
vt 0.702366 0.753523
vt 0.726939 0.349168
vt 0.137744 0.881296
vt 0.437961 0.902799
vt 0.802593 0.401448
vt 0.680221 0.311296
vt 0.681817 0.844153
vt 0.983698 0.093169
vt 0.530753 0.204036
vt 0.261990 0.548812
vt 0.261990 0.631624
vt 0.255100 0.587673
vt 0.973865 0.535675
vt 0.462837 0.829457
vt 0.071989 0.889336
vt 0.924678 0.424823
vt 0.991765 0.339103
vt 0.901789 0.703049
vt 0.873438 0.383498
vt 0.865937 0.386786
vt 0.855630 0.666794
vt 0.832391 0.343289
vt 0.949155 0.389268
vt 0.359368 0.945822
vt 0.804870 0.429493
vt 0.716557 0.956203
vt 0.970245 0.385002
vt 0.802593 0.705451
vt 0.357243 0.904934
vt 0.072740 0.500000
vt 0.003696 0.311194
vt 0.039219 0.479570
vt 0.004162 0.483112
vt 0.503696 0.454623
vt 0.034741 0.323317
vt 0.214530 0.091336
vt 0.070939 0.679706
vt 0.258480 0.904301
vt 0.041504 0.699266
vt 0.233522 0.930837
vt 0.187694 0.069163
vt 0.503696 0.076609
vt 0.503696 0.861504
vt 1.003696 0.311194
vt 1.003230 0.483112
vt 0.968173 0.479569
vt 0.792861 0.091336
vt 0.972651 0.323317
vt 0.936453 0.679706
vt 0.748912 0.904301
vt 0.965888 0.699266
vt 0.773870 0.930837
vt 0.819698 0.069163
vt 0.000000 0.014222
vt 0.188107 0.301041
vt 0.006734 0.501046
vt 0.323291 0.199743
vt 0.244372 0.253212
vt 0.206587 0.185569
vt 0.500000 0.000000
vt 0.500000 0.510258
vt 0.297646 0.325408
vt 0.244024 0.253654
vt 0.244920 0.253600
vt 0.244425 0.254178
vt 0.682055 0.627661
vt 0.619984 0.689994
vt 0.561853 0.630150
vt 0.554067 0.540819
vt 0.681956 0.548370
vt 0.682331 0.683290
vt 0.577327 0.679207
vt 0.500000 0.496036
vt 0.506734 0.009212
vt 0.688107 0.209217
vt 0.823291 0.310515
vt 0.706587 0.324689
vt 0.744372 0.257046
vt 1.000000 0.510258
vt 1.000000 0.000000
vt 0.797646 0.184851
vt 0.744024 0.256604
vt 0.744425 0.256080
vt 0.744920 0.256658
vt 0.682055 0.464400
vt 0.561853 0.447648
vt 0.619984 0.386786
vt 0.682331 0.395709
vt 0.577327 0.392261
vt 0.912104 0.783728
vt 0.980138 0.770139
vt 0.969823 0.783738
vt 0.980138 0.873453
vt 0.969823 0.859850
vt 0.901789 0.873439
vt 0.912104 0.859839
vt 0.901789 0.770124
vt 0.910244 0.888627
vt 0.966013 0.889785
vt 0.957557 0.900659
vt 0.966013 0.988706
vt 0.957557 0.973533
vt 0.901789 0.972374
vt 0.910244 0.961501
vt 0.901789 0.873453
vt 0.969823 0.680409
vt 0.912104 0.680398
vt 0.901789 0.666794
vt 0.912104 0.756509
vt 0.901789 0.770109
vt 0.969823 0.756520
vt 0.980138 0.770124
vt 0.980138 0.666809
vt 0.967849 0.144126
vt 0.919332 0.133643
vt 0.910662 0.118607
vt 0.919332 0.207294
vt 0.910662 0.218583
vt 0.967849 0.217777
vt 0.976519 0.232813
vt 0.976519 0.132837
vt 0.500000 0.548436
vt 0.625443 0.435333
vt 0.625443 0.542634
vt 0.727566 0.435333
vt 0.727566 0.576618
vt 0.374557 0.435333
vt 0.374557 0.537660
vt 0.272434 0.435333
vt 0.272434 0.595683
vt 0.633626 0.257312
vt 0.500000 0.384209
vt 0.633626 0.369828
vt 0.715087 0.312184
vt 0.715087 0.352072
vt 0.366373 0.257312
vt 0.366373 0.369828
vt 0.284913 0.312184
vt 0.284913 0.352072
vt 0.500000 0.435333
vt 0.500000 0.229750
vn 0.1681 0.9708 0.1713
vn -0.1682 0.9713 0.1682
vn -0.5214 0.8367 0.1678
vn -0.4816 0.7322 0.4816
vn -0.1678 0.8367 0.5214
vn 0.1678 0.8367 0.5213
vn 0.4896 0.7501 0.4446
vn 0.5214 0.8367 0.1677
vn -0.9704 -0.0352 -0.2389
vn 0.1739 0.2590 0.9501
vn -0.1994 0.1426 0.9695
vn -0.1739 0.2607 0.9496
vn 0.5236 0.2385 0.8179
vn 0.4896 0.4446 0.7501
vn -0.1678 0.5214 0.8367
vn -0.4816 0.4816 0.7322
vn -0.5225 0.2479 0.8158
vn -0.5656 0.1019 0.8184
vn -0.5288 -0.3326 0.7809
vn -0.2166 -0.3704 0.9033
vn 0.2168 -0.3765 0.9007
vn -0.9846 -0.0173 0.1739
vn -0.9612 0.2179 0.1694
vn -0.8435 -0.3087 0.4396
vn -0.8572 0.0303 0.5141
vn -0.8263 0.2260 0.5159
vn -0.7501 0.4446 0.4896
vn -0.8367 0.5213 0.1678
vn -0.8776 -0.4486 0.1691
vn -0.1352 -0.9830 0.1242
vn 0.1354 -0.9845 0.1112
vn 0.1795 -0.8651 0.4684
vn -0.1798 -0.8617 0.4745
vn -0.5157 -0.7403 0.4314
vn -0.4963 -0.8549 0.1513
vn 0.0000 -1.0000 0.0000
vn -0.1010 0.1984 -0.9749
vn 0.3068 -0.9393 0.1538
vn -0.0999 -0.1125 -0.9886
vn -0.3730 0.9036 -0.2104
vn -0.4311 0.9006 -0.0563
vn 0.4004 -0.1154 -0.9091
vn -0.0075 0.9960 -0.0895
vn -0.0245 0.9575 -0.2874
vn 0.9394 0.2006 0.2781
vn 0.0001 -1.0000 0.0010
vn 0.9893 0.0384 0.1407
vn 0.9517 0.1082 0.2875
vn 0.7685 -0.1593 -0.6197
vn -0.1498 -0.1073 -0.9829
vn -0.1534 0.2063 -0.9664
vn -0.8023 0.3277 0.4989
vn -0.9396 0.2994 0.1656
vn -0.5068 0.3814 0.7731
vn -0.1697 0.4136 0.8945
vn 0.1705 0.4048 0.8984
vn 0.8367 0.5214 0.1677
vn 0.4101 -0.9105 0.0527
vn 0.7643 0.4424 0.4692
vn 0.8255 0.2729 0.4940
vn 0.4159 -0.1712 -0.8931
vn 0.4158 -0.8932 -0.1712
vn 0.9340 0.3048 0.1865
vn 0.8349 0.5209 0.1777
vn -0.3524 0.9213 -0.1644
vn 0.5007 0.3823 0.7766
vn 0.3902 -0.9098 0.1414
vn 0.4250 -0.8324 0.3558
vn 0.4828 -0.2801 0.8297
vn 0.9396 0.2994 0.1656
vn 0.8497 0.0330 0.5262
vn 0.5351 0.1415 0.8329
vn -0.9360 0.2526 -0.2451
vn 0.9897 -0.0909 0.1110
vn -0.0449 0.9884 -0.1454
vn 0.1018 0.8377 0.5366
vn 0.0047 -0.9778 -0.2094
vn 0.6661 0.0904 0.7404
vn -0.4207 0.0327 0.9066
vn -0.8264 0.0849 0.5567
vn 0.8129 -0.0853 -0.5762
vn 0.1196 -0.9817 0.1479
vn 0.0573 0.8564 0.5131
vn 0.4212 -0.0402 -0.9061
vn -0.0774 0.9963 -0.0372
vn 0.0985 -0.9951 -0.0090
vn 0.5184 -0.0294 -0.8547
vn 0.0472 -0.8954 0.4428
vn 0.1691 0.9825 0.0777
vn 0.3949 -0.9097 0.1283
vn 0.9066 0.0957 0.4111
vn 0.4833 0.8462 0.2243
vn -0.2995 -0.9362 -0.1841
vn -0.2454 0.0519 0.9680
vn 0.7336 -0.0007 -0.6796
vn 0.7523 0.1034 0.6506
vn -0.5913 -0.1035 -0.7998
vn 0.4614 0.8589 -0.2224
vn -0.1875 0.0577 0.9806
vn -0.9941 -0.0878 -0.0642
vn 0.4320 -0.8880 -0.1575
vn 0.9497 0.1014 0.2963
vn 0.1713 0.9708 0.1681
vn -0.1714 0.9702 0.1714
vn -0.5213 0.8367 0.1677
vn -0.4386 0.7844 0.4386
vn -0.1677 0.8367 0.5213
vn 0.1677 0.8367 0.5214
vn 0.4446 0.7501 0.4896
vn 0.5213 0.8367 0.1678
vn -0.9687 -0.0308 -0.2462
vn 0.1728 0.2607 0.9498
vn -0.1849 0.1269 0.9745
vn -0.1727 0.2590 0.9503
vn 0.5168 0.2484 0.8193
vn 0.4446 0.4896 0.7501
vn -0.1677 0.5213 0.8367
vn -0.4386 0.4386 0.7844
vn -0.5176 0.2383 0.8218
vn -0.5466 0.0764 0.8339
vn -0.5630 -0.2853 0.7757
vn -0.2112 -0.3768 0.9019
vn 0.2114 -0.3708 0.9043
vn -0.9847 -0.0170 0.1735
vn -0.9616 0.2139 0.1722
vn -0.7829 -0.3758 0.4958
vn -0.8491 0.0143 0.5280
vn -0.8256 0.2221 0.5187
vn -0.7501 0.4896 0.4446
vn -0.8367 0.5214 0.1677
vn -0.8739 -0.4539 0.1740
vn -0.1511 -0.9823 0.1110
vn 0.1526 -0.9803 0.1254
vn 0.1873 -0.8600 0.4747
vn -0.1864 -0.8640 0.4678
vn -0.4886 -0.7415 0.4598
vn -0.5072 -0.8500 0.1421
vn -0.0828 0.2185 -0.9723
vn 0.3588 -0.9185 0.1658
vn 0.3340 -0.9304 0.1509
vn -0.1024 -0.1148 -0.9881
vn -0.3700 0.9055 -0.2079
vn -0.4115 0.9091 -0.0649
vn -0.4450 0.8933 -0.0625
vn 0.1983 -0.2119 -0.9570
vn 0.0000 0.9965 -0.0831
vn -0.0239 0.9577 -0.2866
vn 0.9254 0.0065 0.3790
vn 0.0282 -0.9994 0.0177
vn 0.9893 0.0406 0.1401
vn 0.7909 -0.1022 -0.6033
vn 0.8720 -0.1796 -0.4554
vn -0.1559 -0.1086 -0.9818
vn -0.1375 0.2087 -0.9683
vn -0.0417 0.9550 0.2937
vn -0.0104 0.9959 0.0899
vn -0.0104 0.9959 -0.0899
vn -0.0417 0.9550 -0.2937
vn -0.8036 0.3165 0.5040
vn -0.9407 0.2953 0.1671
vn -0.5050 0.3605 0.7842
vn -0.1672 0.4047 0.8990
vn 0.1666 0.4138 0.8950
vn 0.4206 -0.9057 0.0531
vn 0.7096 0.5072 0.4892
vn 0.7501 0.4896 0.4446
vn 0.8036 0.3202 0.5017
vn 0.8285 0.1595 0.5368
vn -0.3263 0.9327 -0.1537
vn 0.4979 0.3878 0.7757
vn 0.3858 -0.9122 0.1384
vn 0.2325 -0.8483 0.4757
vn 0.3869 -0.3584 0.8496
vn 0.9407 0.2953 0.1671
vn 0.7684 0.3151 0.5571
vn 0.5022 0.1078 0.8580
vn -0.0950 0.9944 -0.0454
vn 0.1946 0.8873 0.4182
vn -0.1392 -0.9023 -0.4080
vn 0.6657 0.0908 0.7407
vn -0.7855 -0.0193 0.6186
vn 0.8442 0.0182 -0.5357
vn 0.3312 -0.9384 0.0982
vn 0.9013 0.1066 0.4200
vn 0.1681 0.9708 -0.1713
vn -0.1682 0.9713 -0.1682
vn -0.5214 0.8367 -0.1678
vn -0.4816 0.7322 -0.4816
vn -0.1678 0.8367 -0.5214
vn 0.1678 0.8367 -0.5213
vn 0.4896 0.7501 -0.4446
vn 0.5214 0.8367 -0.1677
vn -0.9704 -0.0352 0.2389
vn 0.1739 0.2590 -0.9501
vn -0.1994 0.1426 -0.9695
vn -0.1739 0.2607 -0.9496
vn 0.5236 0.2385 -0.8179
vn 0.4896 0.4446 -0.7501
vn -0.1678 0.5214 -0.8367
vn -0.4816 0.4816 -0.7322
vn -0.5225 0.2479 -0.8158
vn -0.5656 0.1019 -0.8184
vn -0.5288 -0.3326 -0.7809
vn -0.2166 -0.3704 -0.9033
vn 0.2168 -0.3765 -0.9007
vn -0.9846 -0.0173 -0.1739
vn -0.9612 0.2179 -0.1694
vn -0.8435 -0.3087 -0.4396
vn -0.8572 0.0303 -0.5141
vn -0.8263 0.2260 -0.5159
vn -0.7501 0.4446 -0.4896
vn -0.8367 0.5213 -0.1678
vn -0.8776 -0.4486 -0.1691
vn -0.1352 -0.9830 -0.1242
vn 0.1354 -0.9845 -0.1112
vn 0.1795 -0.8651 -0.4684
vn -0.1798 -0.8617 -0.4745
vn -0.5157 -0.7403 -0.4314
vn -0.4963 -0.8549 -0.1513
vn -0.1010 0.1984 0.9749
vn 0.3068 -0.9393 -0.1538
vn -0.0999 -0.1125 0.9886
vn -0.3730 0.9036 0.2104
vn -0.4311 0.9006 0.0563
vn 0.4004 -0.1154 0.9091
vn -0.0075 0.9960 0.0895
vn -0.0245 0.9575 0.2874
vn 0.9394 0.2006 -0.2781
vn 0.0001 -1.0000 -0.0010
vn 0.9893 0.0384 -0.1407
vn 0.9517 0.1082 -0.2875
vn 0.7685 -0.1593 0.6197
vn -0.1498 -0.1073 0.9829
vn -0.1534 0.2063 0.9664
vn -0.8023 0.3277 -0.4989
vn -0.9396 0.2994 -0.1656
vn -0.5068 0.3814 -0.7731
vn -0.1697 0.4136 -0.8945
vn 0.1705 0.4048 -0.8984
vn 0.8367 0.5214 -0.1677
vn 0.4101 -0.9105 -0.0527
vn 0.7643 0.4424 -0.4692
vn 0.8255 0.2729 -0.4940
vn 0.4159 -0.1712 0.8931
vn 0.4158 -0.8932 0.1712
vn 0.9340 0.3048 -0.1865
vn 0.8349 0.5209 -0.1777
vn -0.3524 0.9213 0.1644
vn 0.5007 0.3823 -0.7766
vn 0.3902 -0.9098 -0.1414
vn 0.4250 -0.8324 -0.3558
vn 0.4828 -0.2801 -0.8297
vn 0.9396 0.2994 -0.1656
vn 0.8497 0.0330 -0.5262
vn 0.5351 0.1415 -0.8329
vn -0.9360 0.2526 0.2451
vn 0.9897 -0.0909 -0.1110
vn -0.0449 0.9884 0.1454
vn 0.1018 0.8377 -0.5366
vn 0.0047 -0.9778 0.2094
vn 0.6661 0.0904 -0.7404
vn -0.4207 0.0327 -0.9066
vn -0.8264 0.0849 -0.5567
vn 0.8129 -0.0853 0.5762
vn 0.1196 -0.9817 -0.1479
vn 0.0573 0.8564 -0.5131
vn 0.4212 -0.0402 0.9061
vn -0.0774 0.9963 0.0372
vn 0.0985 -0.9951 0.0090
vn 0.5184 -0.0294 0.8547
vn 0.0472 -0.8954 -0.4428
vn 0.1691 0.9825 -0.0777
vn 0.3949 -0.9097 -0.1283
vn 0.9066 0.0957 -0.4111
vn 0.4833 0.8462 -0.2243
vn -0.2995 -0.9362 0.1841
vn -0.2454 0.0519 -0.9680
vn 0.7336 -0.0007 0.6796
vn 0.7523 0.1034 -0.6506
vn -0.5913 -0.1035 0.7998
vn 0.4614 0.8589 0.2224
vn -0.1875 0.0577 -0.9806
vn -0.9941 -0.0878 0.0642
vn 0.4320 -0.8880 0.1575
vn 0.9497 0.1014 -0.2963
vn 0.1713 0.9708 -0.1681
vn -0.1714 0.9702 -0.1714
vn -0.5213 0.8367 -0.1677
vn -0.4386 0.7844 -0.4386
vn -0.1677 0.8367 -0.5213
vn 0.1677 0.8367 -0.5214
vn 0.4446 0.7501 -0.4896
vn 0.5213 0.8367 -0.1678
vn -0.9687 -0.0308 0.2462
vn 0.1728 0.2607 -0.9498
vn -0.1849 0.1269 -0.9745
vn -0.1727 0.2590 -0.9503
vn 0.5168 0.2484 -0.8193
vn 0.4446 0.4896 -0.7501
vn -0.1677 0.5213 -0.8367
vn -0.4386 0.4386 -0.7844
vn -0.5176 0.2383 -0.8218
vn -0.5466 0.0764 -0.8339
vn -0.5630 -0.2853 -0.7757
vn -0.2112 -0.3768 -0.9019
vn 0.2114 -0.3708 -0.9043
vn -0.9847 -0.0170 -0.1735
vn -0.9616 0.2139 -0.1722
vn -0.7829 -0.3758 -0.4958
vn -0.8491 0.0143 -0.5280
vn -0.8256 0.2221 -0.5187
vn -0.7501 0.4896 -0.4446
vn -0.8367 0.5214 -0.1677
vn -0.8739 -0.4539 -0.1740
vn -0.1511 -0.9823 -0.1110
vn 0.1526 -0.9803 -0.1254
vn 0.1873 -0.8600 -0.4747
vn -0.1864 -0.8640 -0.4678
vn -0.4886 -0.7415 -0.4598
vn -0.5072 -0.8500 -0.1421
vn -0.0828 0.2185 0.9723
vn 0.3588 -0.9185 -0.1658
vn 0.3340 -0.9304 -0.1509
vn -0.1024 -0.1148 0.9881
vn -0.3700 0.9055 0.2079
vn -0.4115 0.9091 0.0649
vn -0.4450 0.8933 0.0625
vn 0.1983 -0.2119 0.9570
vn 0.0000 0.9965 0.0831
vn -0.0239 0.9577 0.2866
vn 0.9254 0.0065 -0.3790
vn 0.0282 -0.9994 -0.0177
vn 0.9893 0.0406 -0.1401
vn 0.7909 -0.1022 0.6033
vn 0.8720 -0.1796 0.4554
vn -0.1559 -0.1086 0.9818
vn -0.1375 0.2087 0.9683
vn -0.8036 0.3165 -0.5040
vn -0.9407 0.2953 -0.1671
vn -0.5050 0.3605 -0.7842
vn -0.1672 0.4047 -0.8990
vn 0.1666 0.4138 -0.8950
vn 0.4206 -0.9057 -0.0531
vn 0.7096 0.5072 -0.4892
vn 0.7501 0.4896 -0.4446
vn 0.8036 0.3202 -0.5017
vn 0.8285 0.1595 -0.5368
vn -0.3263 0.9327 0.1537
vn 0.4979 0.3878 -0.7757
vn 0.3858 -0.9122 -0.1384
vn 0.2325 -0.8483 -0.4757
vn 0.3869 -0.3584 -0.8496
vn 0.9407 0.2953 -0.1671
vn 0.7684 0.3151 -0.5571
vn 0.5022 0.1078 -0.8580
vn -0.0950 0.9944 0.0454
vn 0.1946 0.8873 -0.4182
vn -0.1392 -0.9023 0.4080
vn 0.6657 0.0908 -0.7407
vn -0.7855 -0.0193 -0.6186
vn 0.8442 0.0182 0.5357
vn 0.3312 -0.9384 -0.0982
vn 0.9013 0.1066 -0.4200
vn -0.0340 0.9554 0.2934
vn 0.0000 0.9959 0.0906
vn 0.0000 0.9959 -0.0906
vn -0.0340 0.9554 -0.2934
vn -0.1618 -0.0859 0.9831
vn 0.9384 0.2704 0.2151
vn 0.8364 0.5192 0.1759
vn -0.3825 0.6718 0.6343
vn 0.2844 -0.7095 0.6447
vn -0.2150 0.0575 0.9749
vn -0.0213 -0.0838 0.9963
vn 0.9598 0.2318 0.1581
vn 0.9686 0.1728 0.1790
vn 0.8352 0.5215 0.1745
vn 0.8359 0.5209 0.1727
vn 0.2367 -0.7275 0.6440
vn -0.1618 -0.0859 -0.9831
vn 0.9384 0.2704 -0.2151
vn 0.8364 0.5192 -0.1759
vn -0.3825 0.6718 -0.6343
vn 0.2844 -0.7095 -0.6447
vn -0.2150 0.0575 -0.9749
vn -0.0213 -0.0838 -0.9963
vn 0.9598 0.2318 -0.1581
vn 0.9686 0.1728 -0.1790
vn 0.8352 0.5215 -0.1745
vn 0.8359 0.5209 -0.1727
vn 0.2367 -0.7275 -0.6440
vn 0.0788 0.9477 -0.3093
vn -0.9611 0.1461 0.2345
vn -0.9137 0.2149 0.3448
vn 0.0820 -0.6951 0.7143
vn 0.9947 0.0969 0.0351
vn 0.1678 0.5213 0.8367
vn 0.9979 0.0580 -0.0293
vn -0.0095 0.6676 -0.7445
vn 0.1230 -0.4550 0.8820
vn 0.8958 -0.2950 0.3323
vn 0.1677 0.5214 0.8367
vn 0.9291 -0.3322 0.1627
vn 0.8415 -0.0183 0.5400
vn 0.8202 -0.3901 0.4184
vn 0.9345 -0.3238 0.1476
vn 0.0788 0.9477 0.3093
vn -0.9611 0.1461 -0.2345
vn -0.9137 0.2149 -0.3448
vn 0.0820 -0.6951 -0.7143
vn 0.9947 0.0969 -0.0351
vn 0.1678 0.5213 -0.8367
vn 0.9979 0.0580 0.0293
vn -0.0095 0.6676 0.7445
vn 0.1230 -0.4550 -0.8820
vn 0.8958 -0.2950 -0.3323
vn 0.1677 0.5214 -0.8367
vn 0.9291 -0.3322 -0.1627
vn 0.8415 -0.0183 -0.5400
vn 0.8202 -0.3901 -0.4184
vn 0.9345 -0.3238 -0.1476
vn -1.0000 0.0000 0.0000
vn -0.5454 -0.0000 0.8382
vn -0.5454 0.0000 -0.8382
vn 0.9847 0.0000 -0.1742
vn 0.8475 0.0000 -0.5308
vn -0.9847 0.0000 -0.1742
vn -0.8475 0.0000 -0.5308
vn -0.9897 0.0000 0.1430
vn -0.9262 0.0000 0.3771
vn 0.9897 0.0000 0.1430
vn 0.9262 0.0000 0.3771
usemtl Material.003
s off
f 150/1/1 16/2/1 149/3/1
f 151/4/2 17/5/2 150/1/2
f 147/6/3 18/7/3 151/4/3
f 15/8/4 11/9/4 18/7/4
f 18/7/5 10/10/5 17/5/5
f 17/5/6 9/11/6 16/2/6
f 16/2/7 1/12/7 12/13/7
f 149/3/8 12/13/8 142/14/8
f 20/15/9 78/16/9 21/17/9
f 19/18/10 50/19/10 49/20/10
f 21/21/11 23/22/11 20/23/11
f 22/24/12 51/25/12 50/19/12
f 8/26/13 49/20/13 48/27/13
f 1/28/14 19/18/14 8/26/14
f 10/29/15 25/30/15 22/24/15
f 11/31/16 7/32/16 25/33/16
f 25/30/17 47/34/17 51/25/17
f 24/35/18 5/36/18 23/22/18
f 23/22/19 3/37/19 13/38/19
f 20/23/20 13/38/20 14/39/20
f 73/40/21 14/39/21 75/41/21
f 27/42/22 165/43/22 26/44/22
f 28/45/23 202/46/23 52/47/23
f 5/48/24 4/49/24 3/50/24
f 6/51/25 26/44/25 5/48/25
f 7/52/26 52/47/26 47/53/26
f 2/54/27 28/45/27 7/52/27
f 15/55/28 167/56/28 28/45/28
f 26/44/29 133/57/29 4/49/29
f 169/58/30 29/59/30 168/60/30
f 170/61/31 30/62/31 169/58/31
f 76/63/32 14/39/32 30/64/32
f 30/64/33 13/38/33 29/65/33
f 29/65/34 3/37/34 4/66/34
f 168/60/35 4/67/35 133/68/35
f 46/69/36 180/70/36 188/71/36
f 41/72/37 34/73/37 40/74/37
f 12/75/38 56/76/38 63/77/38
f 40/74/39 33/78/39 43/79/39
f 53/80/40 59/81/40 48/82/40
f 203/83/41 209/84/41 62/85/41
f 48/86/42 55/87/42 8/88/42
f 187/89/43 35/90/43 42/91/43
f 43/92/36 36/93/36 46/69/36
f 42/91/44 31/94/44 41/95/44
f 72/96/45 39/97/45 71/98/45
f 69/99/46 45/100/46 32/101/46
f 148/102/47 37/103/47 72/96/47
f 70/104/48 44/105/48 69/106/48
f 71/98/49 38/107/49 70/104/49
f 32/101/36 184/108/36 174/109/36
f 38/110/50 43/79/50 44/111/50
f 39/112/51 40/74/51 38/110/51
f 193/113/36 195/114/36 192/115/36
f 47/53/52 27/42/52 6/51/52
f 52/47/53 166/116/53 27/42/53
f 51/117/54 6/118/54 24/119/54
f 50/19/55 24/35/55 21/21/55
f 49/20/56 21/21/56 74/120/56
f 12/121/57 205/122/57 142/123/57
f 209/124/58 68/125/58 62/126/58
f 60/127/59 54/128/59 55/129/59
f 61/130/60 55/129/60 59/131/60
f 8/88/61 54/132/61 1/133/61
f 1/134/62 56/76/62 12/75/62
f 62/135/63 61/130/63 58/136/63
f 60/127/64 63/137/64 56/138/64
f 63/139/65 222/140/65 212/141/65
f 74/120/66 48/27/66 49/20/66
f 76/142/67 148/143/67 72/144/67
f 71/145/68 76/63/68 72/146/68
f 73/40/69 71/145/69 70/147/69
f 174/148/70 53/149/70 32/150/70
f 69/151/71 53/149/71 48/152/71
f 74/120/72 70/147/72 69/153/72
f 12/154/73 1/155/73 86/156/73
f 12/121/74 142/123/74 86/157/74
f 78/158/75 93/159/75 89/160/75
f 21/161/76 89/160/76 74/162/76
f 73/163/77 87/164/77 20/165/77
f 74/120/78 88/166/78 73/40/78
f 91/167/79 94/168/79 90/169/79
f 87/170/80 90/171/80 78/16/80
f 89/172/81 92/173/81 88/174/81
f 88/175/82 91/176/82 87/164/82
f 94/177/83 113/178/83 98/179/83
f 93/180/84 96/181/84 92/182/84
f 90/183/85 97/184/85 93/159/85
f 92/185/86 95/186/86 91/176/86
f 101/187/87 105/188/87 100/189/87
f 96/190/88 108/191/88 100/192/88
f 94/177/89 101/193/89 97/184/89
f 96/194/90 99/195/90 95/186/90
f 104/196/91 102/197/91 105/198/91
f 98/179/92 104/199/92 101/193/92
f 100/200/93 102/201/93 99/195/93
f 99/202/94 103/203/94 98/204/94
f 107/205/95 108/206/95 106/207/95
f 100/208/96 109/209/96 101/210/96
f 97/211/97 106/212/97 96/181/97
f 101/193/98 107/213/98 97/184/98
f 110/214/99 113/215/99 111/216/99
f 95/217/100 111/218/100 94/219/100
f 99/195/101 110/220/101 95/186/101
f 98/221/102 112/222/102 99/223/102
f 150/1/103 17/5/103 16/2/103
f 151/4/104 18/7/104 17/5/104
f 147/6/105 15/8/105 18/7/105
f 15/8/106 2/224/106 11/9/106
f 18/7/107 11/9/107 10/10/107
f 17/5/108 10/10/108 9/11/108
f 16/2/109 9/11/109 1/12/109
f 149/3/110 16/2/110 12/13/110
f 20/15/111 87/170/111 78/16/111
f 19/18/112 22/24/112 50/19/112
f 21/21/113 24/35/113 23/22/113
f 22/24/114 25/30/114 51/25/114
f 8/26/115 19/18/115 49/20/115
f 1/28/116 9/225/116 19/18/116
f 10/29/117 11/226/117 25/30/117
f 11/227/118 2/228/118 7/229/118
f 25/30/119 7/230/119 47/34/119
f 24/35/120 6/231/120 5/36/120
f 23/22/121 5/36/121 3/37/121
f 20/23/122 23/22/122 13/38/122
f 73/40/123 20/23/123 14/39/123
f 27/42/124 166/116/124 165/43/124
f 28/45/125 167/56/125 202/46/125
f 5/48/126 26/44/126 4/49/126
f 6/51/127 27/42/127 26/44/127
f 7/52/128 28/45/128 52/47/128
f 2/54/129 15/55/129 28/45/129
f 15/55/130 147/232/130 167/56/130
f 26/44/131 165/43/131 133/57/131
f 169/58/132 30/62/132 29/59/132
f 170/61/133 76/142/133 30/62/133
f 76/63/134 75/41/134 14/39/134
f 30/64/135 14/39/135 13/38/135
f 29/65/136 13/38/136 3/37/136
f 168/60/137 29/59/137 4/67/137
f 46/69/36 36/93/36 180/70/36
f 41/72/138 31/233/138 34/73/138
f 212/234/139 205/235/139 63/77/139
f 205/235/140 12/75/140 63/77/140
f 40/74/141 34/73/141 33/78/141
f 53/80/142 58/236/142 59/81/142
f 58/236/143 53/80/143 62/85/143
f 53/80/144 203/83/144 62/85/144
f 48/86/145 59/237/145 55/87/145
f 187/89/146 179/238/146 35/90/146
f 43/92/36 33/239/36 36/93/36
f 42/91/147 35/90/147 31/94/147
f 72/96/148 37/103/148 39/97/148
f 69/99/149 44/240/149 45/100/149
f 148/102/150 182/241/150 37/103/150
f 70/104/151 38/107/151 44/105/151
f 71/98/152 39/97/152 38/107/152
f 32/101/36 45/100/36 184/108/36
f 38/110/153 40/74/153 43/79/153
f 39/112/154 41/72/154 40/74/154
f 191/242/155 186/243/155 190/244/155
f 187/245/156 183/246/156 191/242/156
f 37/247/157 187/245/157 42/248/157
f 39/249/158 42/248/158 41/250/158
f 47/53/159 52/47/159 27/42/159
f 52/47/160 202/46/160 166/116/160
f 51/25/161 47/34/161 6/231/161
f 50/19/162 51/25/162 24/35/162
f 49/20/163 50/19/163 21/21/163
f 209/124/164 218/251/164 68/125/164
f 55/129/165 57/252/165 60/127/165
f 60/127/166 56/138/166 54/128/166
f 59/131/167 58/136/167 61/130/167
f 61/130/168 57/252/168 55/129/168
f 8/88/61 55/87/61 54/132/61
f 1/134/62 54/253/62 56/76/62
f 63/139/169 67/254/169 222/140/169
f 74/120/170 69/153/170 48/27/170
f 76/142/171 170/61/171 148/143/171
f 71/145/172 75/41/172 76/63/172
f 73/40/173 75/41/173 71/145/173
f 174/148/174 203/255/174 53/149/174
f 69/151/175 32/150/175 53/149/175
f 74/120/176 73/40/176 70/147/176
f 78/158/177 90/183/177 93/159/177
f 21/161/178 78/158/178 89/160/178
f 73/163/179 88/175/179 87/164/179
f 74/120/180 89/256/180 88/166/180
f 91/167/79 95/257/79 94/168/79
f 87/170/181 91/258/181 90/171/181
f 89/172/182 93/259/182 92/173/182
f 88/175/183 92/185/183 91/176/183
f 94/177/83 111/260/83 113/178/83
f 93/180/84 97/211/84 96/181/84
f 90/183/85 94/177/85 97/184/85
f 92/185/86 96/194/86 95/186/86
f 101/187/87 104/261/87 105/188/87
f 96/190/88 106/262/88 108/191/88
f 94/177/89 98/179/89 101/193/89
f 96/194/90 100/200/90 99/195/90
f 104/196/184 103/263/184 102/197/184
f 98/179/92 103/264/92 104/199/92
f 100/200/93 105/265/93 102/201/93
f 99/202/94 102/266/94 103/203/94
f 107/205/95 109/209/95 108/206/95
f 100/208/96 108/206/96 109/209/96
f 97/211/97 107/267/97 106/212/97
f 101/193/98 109/268/98 107/213/98
f 110/214/99 112/269/99 113/215/99
f 95/217/100 110/270/100 111/218/100
f 99/195/101 112/271/101 110/220/101
f 98/221/102 113/272/102 112/222/102
f 150/1/185 149/3/185 152/273/185
f 151/4/186 150/1/186 153/274/186
f 147/6/187 151/4/187 154/275/187
f 146/276/188 154/275/188 141/277/188
f 154/275/189 153/274/189 140/278/189
f 153/274/190 152/273/190 139/279/190
f 152/273/191 143/280/191 130/281/191
f 149/3/192 142/14/192 143/280/192
f 156/282/193 157/283/193 235/284/193
f 155/285/194 198/286/194 199/287/194
f 157/288/195 156/289/195 159/290/195
f 158/291/196 199/287/196 200/292/196
f 138/293/197 197/294/197 198/286/197
f 130/295/198 138/293/198 155/285/198
f 140/296/199 158/291/199 161/297/199
f 141/298/200 161/297/200 137/299/200
f 161/297/201 200/292/201 196/300/201
f 160/301/202 159/290/202 135/302/202
f 159/303/203 144/304/203 132/305/203
f 156/306/204 145/307/204 144/304/204
f 230/308/205 232/309/205 145/307/205
f 163/310/206 162/311/206 165/43/206
f 164/312/207 201/313/207 202/46/207
f 135/314/208 132/315/208 134/316/208
f 136/317/209 135/314/209 162/311/209
f 137/318/210 196/319/210 201/313/210
f 131/320/211 137/318/211 164/312/211
f 146/321/212 164/312/212 167/56/212
f 162/311/213 134/316/213 133/57/213
f 169/58/214 168/60/214 171/322/214
f 170/61/215 169/58/215 172/323/215
f 233/324/216 172/323/216 145/307/216
f 172/323/217 171/322/217 144/304/217
f 171/322/218 134/325/218 132/305/218
f 168/60/219 133/68/219 134/325/219
f 195/114/36 188/71/36 180/70/36
f 190/326/220 189/327/220 177/328/220
f 143/329/221 217/330/221 208/331/221
f 189/327/222 192/332/222 176/333/222
f 204/334/223 197/335/223 213/336/223
f 203/83/224 216/337/224 209/84/224
f 197/338/225 138/339/225 207/340/225
f 187/89/226 191/341/226 178/342/226
f 192/115/36 195/114/36 181/343/36
f 191/341/227 190/344/227 173/345/227
f 229/346/228 228/347/228 186/348/228
f 226/349/229 175/350/229 194/351/229
f 148/102/230 229/346/230 183/352/230
f 227/353/231 226/354/231 193/355/231
f 228/356/232 227/357/232 185/358/232
f 175/350/36 174/109/36 184/108/36
f 185/359/233 193/360/233 192/332/233
f 186/361/234 185/359/234 189/327/234
f 188/71/36 194/351/36 184/108/36
f 45/100/36 188/71/36 184/108/36
f 196/319/235 136/317/235 163/310/235
f 201/313/236 163/310/236 166/116/236
f 200/292/237 160/301/237 136/362/237
f 199/287/238 157/288/238 160/301/238
f 198/286/239 231/363/239 157/288/239
f 143/364/240 142/123/240 205/122/240
f 209/124/241 216/365/241 225/366/241
f 214/367/242 207/368/242 206/369/242
f 215/370/243 213/371/243 207/368/243
f 138/339/244 130/372/244 206/373/244
f 130/374/245 143/329/245 208/331/245
f 216/375/246 211/376/246 215/370/246
f 214/367/247 208/377/247 217/378/247
f 217/379/248 212/141/248 222/140/248
f 231/363/249 198/286/249 197/294/249
f 233/324/250 229/380/250 148/143/250
f 228/381/251 229/380/251 233/324/251
f 230/308/252 227/382/252 228/381/252
f 174/148/253 175/383/253 204/384/253
f 226/385/254 197/386/254 204/384/254
f 231/363/255 226/387/255 227/388/255
f 143/389/256 243/390/256 130/391/256
f 143/364/257 243/392/257 142/123/257
f 235/393/258 246/394/258 250/395/258
f 157/396/259 231/397/259 246/394/259
f 230/308/260 156/306/260 244/398/260
f 231/399/261 230/400/261 245/401/261
f 248/402/262 247/403/262 251/404/262
f 244/405/263 235/284/263 247/406/263
f 246/407/264 245/401/264 249/408/264
f 245/409/265 244/410/265 248/411/265
f 251/412/266 255/413/266 270/414/266
f 250/415/267 249/416/267 253/417/267
f 247/418/268 250/395/268 254/419/268
f 249/420/269 248/411/269 252/421/269
f 258/422/270 257/423/270 262/424/270
f 253/425/271 257/426/271 265/427/271
f 251/412/272 254/419/272 258/428/272
f 253/425/273 252/421/273 256/429/273
f 261/430/274 262/431/274 259/432/274
f 255/413/275 258/428/275 261/433/275
f 257/426/276 256/429/276 259/434/276
f 256/435/277 255/436/277 260/437/277
f 264/438/278 263/439/278 265/440/278
f 257/441/279 258/442/279 266/443/279
f 254/444/280 253/417/280 263/439/280
f 258/428/281 254/419/281 264/445/281
f 267/446/282 268/447/282 270/448/282
f 252/449/283 251/450/283 268/451/283
f 256/429/284 252/421/284 267/452/284
f 255/453/285 256/454/285 269/455/285
f 150/1/286 152/273/286 153/274/286
f 151/4/287 153/274/287 154/275/287
f 147/6/288 154/275/288 146/276/288
f 146/276/289 141/277/289 131/456/289
f 154/275/290 140/278/290 141/277/290
f 153/274/291 139/279/291 140/278/291
f 152/273/292 130/281/292 139/279/292
f 149/3/293 143/280/293 152/273/293
f 156/282/294 235/284/294 244/405/294
f 155/285/295 199/287/295 158/291/295
f 157/288/296 159/290/296 160/301/296
f 158/291/297 200/292/297 161/297/297
f 138/293/298 198/286/298 155/285/298
f 130/295/299 155/285/299 139/457/299
f 140/296/300 161/297/300 141/298/300
f 141/298/301 137/299/301 131/458/301
f 161/297/302 196/300/302 137/299/302
f 160/301/303 135/302/303 136/362/303
f 159/303/304 132/305/304 135/459/304
f 156/306/305 144/304/305 159/303/305
f 230/308/306 145/307/306 156/306/306
f 163/310/307 165/43/307 166/116/307
f 164/312/308 202/46/308 167/56/308
f 135/314/309 134/316/309 162/311/309
f 136/317/310 162/311/310 163/310/310
f 137/318/311 201/313/311 164/312/311
f 131/320/312 164/312/312 146/321/312
f 146/321/313 167/56/313 147/232/313
f 162/311/314 133/57/314 165/43/314
f 169/58/315 171/322/315 172/323/315
f 170/61/316 172/323/316 233/324/316
f 233/324/317 145/307/317 232/309/317
f 172/323/318 144/304/318 145/307/318
f 171/322/319 132/305/319 144/304/319
f 168/60/320 134/325/320 171/322/320
f 195/114/36 180/70/36 181/343/36
f 190/326/321 177/328/321 173/460/321
f 212/234/322 217/330/322 205/235/322
f 205/235/323 217/330/323 143/329/323
f 189/327/324 176/333/324 177/328/324
f 204/334/325 213/336/325 211/461/325
f 211/461/326 216/337/326 204/334/326
f 204/334/327 216/337/327 203/83/327
f 197/338/328 207/340/328 213/462/328
f 187/89/329 178/342/329 179/238/329
f 192/115/36 181/343/36 176/463/36
f 191/341/330 173/345/330 178/342/330
f 229/346/331 186/348/331 183/352/331
f 226/349/332 194/351/332 193/113/332
f 148/102/333 183/352/333 182/241/333
f 227/353/334 193/355/334 185/464/334
f 228/347/335 185/465/335 186/348/335
f 175/350/36 184/108/36 194/351/36
f 185/359/336 192/332/336 189/327/336
f 186/361/337 189/327/337 190/326/337
f 46/69/36 44/240/36 43/92/36
f 196/319/338 163/310/338 201/313/338
f 201/313/339 166/116/339 202/46/339
f 200/292/340 136/362/340 196/300/340
f 199/287/341 160/301/341 200/292/341
f 198/286/342 157/288/342 199/287/342
f 209/124/343 225/366/343 218/251/343
f 207/368/344 214/367/344 210/466/344
f 214/367/345 206/369/345 208/377/345
f 213/371/346 215/370/346 211/376/346
f 215/370/347 207/368/347 210/466/347
f 138/339/244 206/373/244 207/340/244
f 130/374/245 208/331/245 206/467/245
f 217/379/348 222/140/348 224/468/348
f 231/363/349 197/294/349 226/387/349
f 233/324/350 148/143/350 170/61/350
f 228/381/351 233/324/351 232/309/351
f 230/308/352 228/381/352 232/309/352
f 174/148/353 204/384/353 203/255/353
f 226/385/354 204/384/354 175/383/354
f 231/363/355 227/388/355 230/469/355
f 235/393/356 250/395/356 247/418/356
f 157/396/357 246/394/357 235/393/357
f 230/470/358 244/471/358 245/472/358
f 231/399/359 245/401/359 246/407/359
f 248/402/262 251/404/262 252/473/262
f 244/405/360 247/406/360 248/474/360
f 246/407/361 249/408/361 250/475/361
f 245/409/362 248/411/362 249/420/362
f 251/412/266 270/414/266 268/476/266
f 250/415/267 253/417/267 254/444/267
f 247/418/268 254/419/268 251/412/268
f 249/420/269 252/421/269 253/425/269
f 258/422/270 262/424/270 261/477/270
f 253/425/271 265/427/271 263/478/271
f 251/412/272 258/428/272 255/413/272
f 253/425/273 256/429/273 257/426/273
f 261/430/363 259/432/363 260/479/363
f 255/413/275 261/433/275 260/480/275
f 257/426/276 259/434/276 262/481/276
f 256/435/277 260/437/277 259/482/277
f 264/438/278 265/440/278 266/483/278
f 257/441/279 266/443/279 265/484/279
f 254/444/280 263/439/280 264/438/280
f 258/428/281 264/445/281 266/485/281
f 267/446/282 270/448/282 269/486/282
f 252/449/283 268/451/283 267/487/283
f 256/429/284 267/452/284 269/488/284
f 255/453/285 269/455/285 270/489/285
f 193/113/36 194/351/36 195/114/36
f 191/242/364 183/246/364 186/243/364
f 187/245/365 182/490/365 183/246/365
f 37/247/366 182/490/366 187/245/366
f 39/249/367 37/247/367 42/248/367
f 188/71/36 195/114/36 194/351/36
f 45/100/36 46/69/36 188/71/36
f 46/69/36 45/100/36 44/240/36
usemtl Material.004
f 61/491/368 64/492/368 57/493/368
f 219/494/369 65/495/369 68/496/369
f 66/497/370 219/494/370 67/498/370
f 60/499/371 67/498/371 63/500/371
f 62/501/372 65/495/372 61/491/372
f 57/493/373 66/497/373 60/499/373
f 61/491/374 65/495/374 64/492/374
f 68/496/375 218/502/375 219/494/375
f 219/494/376 64/492/376 65/495/376
f 64/492/377 219/494/377 66/497/377
f 219/494/378 222/503/378 67/498/378
f 60/499/371 66/497/371 67/498/371
f 62/501/379 68/496/379 65/495/379
f 57/493/373 64/492/373 66/497/373
f 215/504/380 210/505/380 220/506/380
f 219/494/381 225/507/381 221/508/381
f 223/509/382 224/510/382 219/494/382
f 214/511/383 217/512/383 224/510/383
f 216/513/384 215/504/384 221/508/384
f 210/505/385 214/511/385 223/509/385
f 215/504/386 220/506/386 221/508/386
f 225/507/387 219/494/387 218/502/387
f 219/494/388 221/508/388 220/506/388
f 220/506/389 223/509/389 219/494/389
f 219/494/390 224/510/390 222/503/390
f 214/511/383 224/510/383 223/509/383
f 216/513/391 221/508/391 225/507/391
f 210/505/385 223/509/385 220/506/385
usemtl Material.005
f 10/514/392 77/515/392 9/516/392
f 81/517/393 83/518/393 79/519/393
f 22/520/394 79/519/394 10/514/394
f 19/521/395 81/517/395 22/520/395
f 9/516/396 80/522/396 19/521/396
f 82/523/397 85/524/397 84/525/397
f 77/515/398 84/525/398 80/522/398
f 79/519/399 82/523/399 77/515/399
f 80/522/400 85/524/400 81/517/400
f 36/526/401 34/527/401 35/528/401
f 10/514/392 79/519/392 77/515/392
f 81/517/393 85/524/393 83/518/393
f 22/520/394 81/517/394 79/519/394
f 19/521/395 80/522/395 81/517/395
f 9/516/396 77/515/396 80/522/396
f 82/523/402 83/518/402 85/524/402
f 77/515/398 82/523/398 84/525/398
f 79/519/399 83/518/399 82/523/399
f 80/522/400 84/525/400 85/524/400
f 179/529/403 180/530/403 36/526/403
f 36/526/404 33/531/404 34/527/404
f 34/527/405 31/532/405 35/528/405
f 35/528/406 179/529/406 36/526/406
f 140/533/407 139/534/407 234/535/407
f 238/536/408 236/537/408 240/538/408
f 158/539/409 140/533/409 236/537/409
f 155/540/410 158/539/410 238/536/410
f 139/534/411 155/540/411 237/541/411
f 239/542/412 241/543/412 242/544/412
f 234/535/413 237/541/413 241/543/413
f 236/537/414 234/535/414 239/542/414
f 237/541/415 238/536/415 242/544/415
f 181/545/416 178/546/416 177/547/416
f 140/533/407 234/535/407 236/537/407
f 238/536/408 240/538/408 242/544/408
f 158/539/409 236/537/409 238/536/409
f 155/540/410 238/536/410 237/541/410
f 139/534/411 237/541/411 234/535/411
f 239/542/417 242/544/417 240/538/417
f 234/535/413 241/543/413 239/542/413
f 236/537/414 239/542/414 240/538/414
f 237/541/415 242/544/415 241/543/415
f 179/529/418 181/545/418 180/530/418
f 181/545/419 177/547/419 176/548/419
f 177/547/420 178/546/420 173/549/420
f 178/546/421 181/545/421 179/529/421
usemtl Material.006
f 118/550/422 114/551/422 119/552/422
f 119/552/422 115/553/422 120/554/422
f 120/554/422 117/555/422 121/556/422
f 121/556/422 116/557/422 118/550/422
f 126/558/423 122/559/423 127/560/423
f 127/560/423 123/561/423 128/562/423
f 128/562/423 125/563/423 129/564/423
f 129/564/423 124/565/423 126/558/423
f 118/550/422 116/557/422 114/551/422
f 119/552/422 114/551/422 115/553/422
f 120/554/422 115/553/422 117/555/422
f 121/556/422 117/555/422 116/557/422
f 126/558/423 124/565/423 122/559/423
f 127/560/423 122/559/423 123/561/423
f 128/562/423 123/561/423 125/563/423
f 129/564/423 125/563/423 124/565/423
f 275/566/422 276/567/422 271/568/422
f 276/567/422 277/569/422 272/570/422
f 277/569/422 278/571/422 274/572/422
f 278/571/422 275/566/422 273/573/422
f 283/574/424 284/575/424 279/576/424
f 284/575/424 285/577/424 280/578/424
f 285/577/424 286/579/424 282/580/424
f 286/579/424 283/574/424 281/581/424
f 275/566/422 271/568/422 273/573/422
f 276/567/422 272/570/422 271/568/422
f 277/569/422 274/572/422 272/570/422
f 278/571/422 273/573/422 274/572/422
f 283/574/424 279/576/424 281/581/424
f 284/575/424 280/578/424 279/576/424
f 285/577/424 282/580/424 280/578/424
f 286/579/424 281/581/424 282/580/424
usemtl Material
f 184/582/425 291/583/425 194/584/425
f 194/584/426 290/585/426 193/586/426
f 184/582/427 288/587/427 45/588/427
f 45/588/428 287/589/428 44/590/428
f 191/591/429 294/592/429 296/593/429
f 190/594/430 296/593/430 295/595/430
f 42/596/431 294/592/431 293/597/431
f 41/598/432 293/597/432 292/599/432
f 184/582/425 289/600/425 291/583/425
f 194/584/426 291/583/426 290/585/426
f 184/582/427 289/600/427 288/587/427
f 45/588/428 288/587/428 287/589/428
f 191/591/429 187/601/429 294/592/429
f 190/594/430 191/591/430 296/593/430
f 42/596/431 187/601/431 294/592/431
f 41/598/432 42/596/432 293/597/432
