mtllib model_1.mtl
o model_1
v -0.9155992269515991 3.869563341140747 2.8537449836730957 
v -1.0212106704711914 3.727900266647339 2.76080060005188 
v -1.041835904121399 3.961446762084961 2.8518803119659424 
v -1.1618179082870483 3.8270885944366455 2.7677741050720215 
v -1.1638447046279907 3.646228790283203 2.796600341796875 
v -0.931904137134552 3.862518787384033 3.0557518005371094 
v -1.010725975036621 3.9196672439575195 3.0768895149230957 
v -0.9763584136962891 3.6955649852752686 3.088705062866211 
v -1.1142085790634155 3.787550926208496 3.1356115341186523 
v -1.1671488285064697 3.6153409481048584 3.037846088409424 
v -1.123366117477417 3.941418170928955 3.0819993019104004 
v -1.1899887323379517 3.9689605236053467 2.8976519107818604 
v -1.2816036939620972 3.8637804985046387 2.9759600162506104 
v -1.2442281246185303 3.7152822017669678 2.8386194705963135 
v -1.1453531980514526 3.566497802734375 2.8239006996154785 
v -1.146898865699768 3.5540273189544678 3.015244245529175 
v -1.2590372562408447 3.717238187789917 3.0359973907470703 
v -0.9155992269515991 3.869563341140747 2.8537449836730957 
v -0.931904137134552 3.862518787384033 3.0557518005371094 
v -0.8906416296958923 3.728739023208618 2.925379514694214 
v -0.9763584136962891 3.6955649852752686 3.088705062866211 
v -0.9935112595558167 3.5995986461639404 2.9300034046173096 
v -1.0212106704711914 3.727900266647339 2.76080060005188 
v -1.1638447046279907 3.646228790283203 2.796600341796875 
v -1.1453531980514526 3.566497802734375 2.8239006996154785 
v -1.0462504625320435 3.5374813079833984 2.926610231399536 
v -1.146898865699768 3.5540273189544678 3.015244245529175 
v -1.1671488285064697 3.6153409481048584 3.037846088409424 
v -1.2831861972808838 2.762789726257324 2.8317337036132812 
v -1.287279486656189 2.761025905609131 2.918929100036621 
v -1.2067030668258667 2.771613121032715 2.9185893535614014 
v -1.2784944772720337 3.3308053016662598 2.934952735900879 
v -1.274317979812622 3.329787492752075 2.8481757640838623 
v -1.200210690498352 3.6830501556396484 2.8699183464050293 
v -1.205127477645874 3.683143138885498 2.957362413406372 
v -1.3537452220916748 3.360466480255127 2.9350497722625732 
v -1.2417861223220825 3.7021164894104004 2.9572739601135254 
v -1.2026097774505615 2.773376941680908 2.8313937187194824 
v -1.2417861223220825 3.7021164894104004 2.9572739601135254 
v -1.3537452220916748 3.360466480255127 2.9350497722625732 
v -1.2378160953521729 3.700807809829712 2.8698647022247314 
v -1.3492710590362549 3.3605337142944336 2.8476765155792236 
v -1.200210690498352 3.6830501556396484 2.8699183464050293 
v -1.274317979812622 3.329787492752075 2.8481757640838623 
v -1.2831861972808838 2.762789726257324 2.8317337036132812 
v -1.2026097774505615 2.773376941680908 2.8313937187194824 
v -1.287279486656189 2.761025905609131 2.918929100036621 
v -1.2871687412261963 2.9517242908477783 2.907047986984253 
v -1.2217172384262085 2.9802722930908203 3.024286985397339 
v -1.342538595199585 3.317171573638916 2.927124500274658 
v -1.1859465837478638 3.2837090492248535 3.104818105697632 
v -1.2675596475601196 3.540388584136963 2.938364028930664 
v -1.164689302444458 3.545156240463257 3.0201334953308105 
v -1.2217172384262085 2.9802722930908203 3.024286985397339 
v -1.1340924501419067 3.0037190914154053 2.9556961059570312 
v -1.1859465837478638 3.2837090492248535 3.104818105697632 
v -1.0631705522537231 3.294360637664795 2.9489190578460693 
v -1.1133519411087036 3.4821722507476807 2.95562744140625 
v -1.164689302444458 3.545156240463257 3.0201334953308105 
v -1.2871408462524414 2.949568033218384 2.8705098628997803 
v -1.222098469734192 2.982739210128784 2.7539610862731934 
v -1.341427206993103 3.3154823780059814 2.8675055503845215 
v -1.1860452890396118 3.290053367614746 2.686702251434326 
v -1.2660529613494873 3.538667917251587 2.8652894496917725 
v -1.1639801263809204 3.5459866523742676 2.782721996307373 
v -1.222098469734192 2.982739210128784 2.7539610862731934 
v -1.1339770555496216 3.00360107421875 2.822305679321289 
v -1.1860452890396118 3.290053367614746 2.686702251434326 
v -1.0620756149291992 3.2936644554138184 2.842155933380127 
v -1.1121071577072144 3.480785846710205 2.844963788986206 
v -1.1639801263809204 3.5459866523742676 2.782721996307373 
v -1.2851390838623047 2.7997806072235107 3.2189126014709473 
v -1.2828198671340942 2.7932937145233154 3.254490852355957 
v -1.3325166702270508 2.8062076568603516 3.2314319610595703 
v -1.3301974534988403 2.799720525741577 3.26701021194458 
v -1.2881157398223877 3.220902681350708 3.219611167907715 
v -1.2960448265075684 3.2268145084381104 3.1502768993377686 
v -1.2743477821350098 3.5876781940460205 3.067243814468384 
v -1.2837878465652466 3.559927463531494 3.0038821697235107 
v -1.2003488540649414 3.579209566116333 3.0561394691467285 
v -1.2093464136123657 3.5512986183166504 2.9927070140838623 
v -1.3301974534988403 2.799720525741577 3.26701021194458 
v -1.2881157398223877 3.220902681350708 3.219611167907715 
v -1.2828198671340942 2.7932937145233154 3.254490852355957 
v -1.2135215997695923 3.214604139328003 3.2073140144348145 
v -1.2743477821350098 3.5876781940460205 3.067243814468384 
v -1.2003488540649414 3.579209566116333 3.0561394691467285 
v -1.3325166702270508 2.8062076568603516 3.2314319610595703 
v -1.2960448265075684 3.2268145084381104 3.1502768993377686 
v -1.2851390838623047 2.7997806072235107 3.2189126014709473 
v -1.2211530208587646 3.2216010093688965 3.137383460998535 
v -1.2837878465652466 3.559927463531494 3.0038821697235107 
v -1.2093464136123657 3.5512986183166504 2.9927070140838623 
v -1.2828198671340942 2.7932937145233154 3.254490852355957 
v -1.2135215997695923 3.214604139328003 3.2073140144348145 
v -1.2851390838623047 2.7997806072235107 3.2189126014709473 
v -1.2211530208587646 3.2216010093688965 3.137383460998535 
v -1.2003488540649414 3.579209566116333 3.0561394691467285 
v -1.2093464136123657 3.5512986183166504 2.9927070140838623 
v -1.3059568405151367 1.8678070306777954 2.9973857402801514 
v -1.341904640197754 1.8884472846984863 2.9979660511016846 
v -1.3102539777755737 1.869158148765564 2.9514753818511963 
v -1.3459041118621826 1.8908833265304565 2.9514594078063965 
v -1.242052674293518 2.2356128692626953 3.0024306774139404 
v -1.2466069459915161 2.2378532886505127 2.9145054817199707 
v -1.2733774185180664 2.7979588508605957 2.9957869052886963 
v -1.2773442268371582 2.7987937927246094 2.9083163738250732 
v -1.1966630220413208 2.802281379699707 2.9087064266204834 
v -1.1926344633102417 2.802983045578003 2.996284008026123 
v -1.2733774185180664 2.7979588508605957 2.9957869052886963 
v -1.242052674293518 2.2356128692626953 3.0024306774139404 
v -1.1926344633102417 2.802983045578003 2.996284008026123 
v -1.1694679260253906 2.200316905975342 3.001627206802368 
v -1.341904640197754 1.8884472846984863 2.9979660511016846 
v -1.3059568405151367 1.8678070306777954 2.9973857402801514 
v -1.3059568405151367 1.8678070306777954 2.9973857402801514 
v -1.1694679260253906 2.200316905975342 3.001627206802368 
v -1.3102539777755737 1.869158148765564 2.9514753818511963 
v -1.1733731031417847 2.202688217163086 2.9142634868621826 
v -1.1926344633102417 2.802983045578003 2.996284008026123 
v -1.1966630220413208 2.802281379699707 2.9087064266204834 
v -1.3102539777755737 1.869158148765564 2.9514753818511963 
v -1.3459041118621826 1.8908833265304565 2.9514594078063965 
v -1.1733731031417847 2.202688217163086 2.9142634868621826 
v -1.2466069459915161 2.2378532886505127 2.9145054817199707 
v -1.1966630220413208 2.802281379699707 2.9087064266204834 
v -1.2773442268371582 2.7987937927246094 2.9083163738250732 
v -1.2853187322616577 2.8302080631256104 2.5346038341522217 
v -1.3257068395614624 2.837348222732544 2.5219995975494385 
v -1.2834666967391968 2.825371265411377 2.4995367527008057 
v -1.3236480951309204 2.8328022956848145 2.487565040588379 
v -1.2886332273483276 3.261901617050171 2.5380542278289795 
v -1.2968969345092773 3.263509750366211 2.607551097869873 
v -1.2717565298080444 3.606119155883789 2.7377376556396484 
v -1.281578540802002 3.5741934776306152 2.7998225688934326 
v -1.1973069906234741 3.5969936847686768 2.750134229660034 
v -1.2070378065109253 3.565861940383911 2.810990571975708 
v -1.3236480951309204 2.8328022956848145 2.487565040588379 
v -1.2886332273483276 3.261901617050171 2.5380542278289795 
v -1.2834666967391968 2.825371265411377 2.4995367527008057 
v -1.21412193775177 3.254312515258789 2.550557851791382 
v -1.2717565298080444 3.606119155883789 2.7377376556396484 
v -1.1973069906234741 3.5969936847686768 2.750134229660034 
v -1.3257068395614624 2.837348222732544 2.5219995975494385 
v -1.2968969345092773 3.263509750366211 2.607551097869873 
v -1.2853187322616577 2.8302080631256104 2.5346038341522217 
v -1.2221790552139282 3.256211519241333 2.620687246322632 
v -1.281578540802002 3.5741934776306152 2.7998225688934326 
v -1.2070378065109253 3.565861940383911 2.810990571975708 
v -1.2834666967391968 2.825371265411377 2.4995367527008057 
v -1.21412193775177 3.254312515258789 2.550557851791382 
v -1.2853187322616577 2.8302080631256104 2.5346038341522217 
v -1.2221790552139282 3.256211519241333 2.620687246322632 
v -1.1973069906234741 3.5969936847686768 2.750134229660034 
v -1.2070378065109253 3.565861940383911 2.810990571975708 
v -1.3184230327606201 1.8810302019119263 2.6943752765655518 
v -1.3532840013504028 1.9010857343673706 2.6998722553253174 
v -1.301556944847107 1.8762234449386597 2.7402710914611816 
v -1.3364177942276 1.896278977394104 2.7457680702209473 
v -1.2518682479858398 2.247318983078003 2.703421115875244 
v -1.2353031635284424 2.242286205291748 2.789541244506836 
v -1.2793010473251343 2.8072357177734375 2.7649948596954346 
v -1.2625614404678345 2.800215244293213 2.85030460357666 
v -1.1842509508132935 2.8056914806365967 2.8313772678375244 
v -1.2009904384613037 2.8127119541168213 2.7460672855377197 
v -1.2793010473251343 2.8072357177734375 2.7649948596954346 
v -1.2518682479858398 2.247318983078003 2.703421115875244 
v -1.2009904384613037 2.8127119541168213 2.7460672855377197 
v -1.1812118291854858 2.2138514518737793 2.6832292079925537 
v -1.3532840013504028 1.9010857343673706 2.6998722553253174 
v -1.3184230327606201 1.8810302019119263 2.6943752765655518 
v -1.3184230327606201 1.8810302019119263 2.6943752765655518 
v -1.1812118291854858 2.2138514518737793 2.6832292079925537 
v -1.301556944847107 1.8762234449386597 2.7402710914611816 
v -1.1642040014266968 2.208658456802368 2.7692785263061523 
v -1.2009904384613037 2.8127119541168213 2.7460672855377197 
v -1.1842509508132935 2.8056914806365967 2.8313772678375244 
v -1.301556944847107 1.8762234449386597 2.7402710914611816 
v -1.3364177942276 1.896278977394104 2.7457680702209473 
v -1.1642040014266968 2.208658456802368 2.7692785263061523 
v -1.2353031635284424 2.242286205291748 2.789541244506836 
v -1.1842509508132935 2.8056914806365967 2.8313772678375244 
v -1.2625614404678345 2.800215244293213 2.85030460357666 
v -1.2643613815307617 4.565730094909668 2.9375951290130615 
v -1.2609057426452637 4.565815448760986 2.9014077186584473 
v -1.2605942487716675 3.672065496444702 2.9013657569885254 
v -1.2606991529464722 4.56610631942749 2.9020402431488037 
v -1.2646992206573486 3.6718497276306152 2.9369914531707764 
v -1.2648040056228638 4.565890789031982 2.9376659393310547 
v -1.2643613815307617 4.565730094909668 2.9375951290130615 
v -1.2605942487716675 3.672065496444702 2.9013657569885254 
v -1.264050006866455 3.671980381011963 2.9375529289245605 
v -1.2606991529464722 4.56610631942749 2.9020402431488037 
v -1.2605942487716675 3.672065496444702 2.9013657569885254 
v -1.2646992206573486 3.6718497276306152 2.9369914531707764 
v -1.3471368551254272 2.554379940032959 3.3070223331451416 
v -1.2987406253814697 2.783885955810547 3.3490657806396484 
v -1.3488014936447144 2.5849344730377197 3.1442618370056152 
v -1.3004963397979736 2.8136465549468994 3.1875340938568115 
v -1.3057197332382202 2.859656810760498 2.564408540725708 
v -1.2984708547592163 2.8089406490325928 2.407771587371826 
v -1.2932531833648682 2.633864641189575 2.6383519172668457 
v -1.2860043048858643 2.583148717880249 2.481714963912964 
v -1.3365247249603271 1.892213225364685 2.7926981449127197 
v -1.3130403757095337 1.9049420356750488 2.6290886402130127 
v -1.3623261451721191 1.5990954637527466 2.7767040729522705 
v -1.3386352062225342 1.612115502357483 2.61372709274292 
v -1.3001312017440796 1.592939853668213 3.038540840148926 
v -1.3171247243881226 1.8842082023620605 3.0760347843170166 
v -1.3142813444137573 1.6066582202911377 2.874262571334839 
v -1.3308323621749878 1.89776611328125 2.9116859436035156 
v -1.3386352062225342 1.612115502357483 2.61372709274292 
v -1.3130403757095337 1.9049420356750488 2.6290886402130127 
v -1.3623261451721191 1.5990954637527466 2.7767040729522705 
v -1.3365247249603271 1.892213225364685 2.7926981449127197 
v -1.3308323621749878 1.89776611328125 2.9116859436035156 
v -1.3171247243881226 1.8842082023620605 3.0760347843170166 
v -1.3142813444137573 1.6066582202911377 2.874262571334839 
v -1.3001312017440796 1.592939853668213 3.038540840148926 
v -1.3004963397979736 2.8136465549468994 3.1875340938568115 
v -1.2987406253814697 2.783885955810547 3.3490657806396484 
v -1.3488014936447144 2.5849344730377197 3.1442618370056152 
v -1.3471368551254272 2.554379940032959 3.3070223331451416 
v -1.2860043048858643 2.583148717880249 2.481714963912964 
v -1.2984708547592163 2.8089406490325928 2.407771587371826 
v -1.2932531833648682 2.633864641189575 2.6383519172668457 
v -1.3057197332382202 2.859656810760498 2.564408540725708 
vn 0.7842074632644653 0.43144476413726807 -0.4459531307220459 
vn 0.36401525139808655 -0.23026800155639648 -0.9024794101715088 
vn 0.2579895555973053 0.8504191040992737 -0.45850688219070435 
vn -0.3600620925426483 0.2767584025859833 -0.8909323215484619 
vn -0.38428953289985657 -0.5312708020210266 -0.755031168460846 
vn 0.7597651481628418 0.3680073320865631 0.5360292792320251 
vn 0.4081295430660248 0.6768265962600708 0.6126459836959839 
vn 0.5095770359039307 -0.4316825866699219 0.744299590587616 
vn -0.15708529949188232 -0.012777252122759819 0.9875022768974304 
vn -0.43825188279151917 -0.661017894744873 0.6090900301933289 
vn -0.2041584551334381 0.730614185333252 0.6515527963638306 
vn -0.4681639075279236 0.8464189767837524 -0.25376632809638977 
vn -0.9302570223808289 0.3349373936653137 0.14979736506938934 
vn -0.8518677353858948 -0.2773645520210266 -0.4442865550518036 
vn -0.30310946702957153 -0.6440227031707764 -0.7023947834968567 
vn -0.31156131625175476 -0.7030799388885498 0.639224648475647 
vn -0.8337177038192749 -0.3012200593948364 0.46279752254486084 
vn 0.7842074632644653 0.43144476413726807 -0.4459531307220459 
vn 0.7597651481628418 0.3680073320865631 0.5360292792320251 
vn 0.9513357281684875 -0.29200056195259094 -0.09847075492143631 
vn 0.5095770359039307 -0.4316825866699219 0.744299590587616 
vn 0.6742297410964966 -0.7365574836730957 -0.053826142102479935 
vn 0.36401525139808655 -0.23026800155639648 -0.9024794101715088 
vn -0.38428953289985657 -0.5312708020210266 -0.755031168460846 
vn -0.30310946702957153 -0.6440227031707764 -0.7023947834968567 
vn 0.48254773020744324 -0.8758012652397156 -0.010928165167570114 
vn -0.31156131625175476 -0.7030799388885498 0.639224648475647 
vn -0.43825188279151917 -0.661017894744873 0.6090900301933289 
vn -0.4901558458805084 -0.6297972202301025 -0.6025793552398682 
vn -0.51800137758255 -0.6538930535316467 0.5514512658119202 
vn 0.6338062286376953 -0.5166904926300049 0.5756049752235413 
vn 0.6428931951522827 -0.05828357860445976 0.7637354135513306 
vn 0.6886841058731079 0.006795157212764025 -0.7250296473503113 
vn 0.6848967671394348 -0.0995909571647644 -0.7218019366264343 
vn 0.5926588177680969 -0.17278912663459778 0.7867019176483154 
vn -0.769993007183075 0.052486352622509 0.635890007019043 
vn -0.7231041789054871 0.19248835742473602 0.6633766293525696 
vn 0.6564478874206543 -0.4848649501800537 -0.5779115557670593 
vn -0.7231041789054871 0.19248835742473602 0.6633766293525696 
vn -0.769993007183075 0.052486352622509 0.635890007019043 
vn -0.68108731508255 0.26944535970687866 -0.6808229088783264 
vn -0.7201420664787292 0.10218577831983566 -0.6862608790397644 
vn 0.6848967671394348 -0.0995909571647644 -0.7218019366264343 
vn 0.6886841058731079 0.006795157212764025 -0.7250296473503113 
vn -0.4901558458805084 -0.6297972202301025 -0.6025793552398682 
vn 0.6564478874206543 -0.4848649501800537 -0.5779115557670593 
vn -0.51800137758255 -0.6538930535316467 0.5514512658119202 
vn -0.8471084833145142 -0.1560971438884735 0.5079775452613831 
vn -0.3223336338996887 -0.2704787254333496 0.9071617126464844 
vn -0.755567193031311 0.05767318233847618 0.6525274515151978 
vn 0.036209587007761 0.021740058436989784 0.9991076588630676 
vn -0.653190553188324 0.25044476985931396 0.7145763635635376 
vn 0.00203420571051538 0.30599191784858704 0.9520316123962402 
vn -0.3223336338996887 -0.2704787254333496 0.9071617126464844 
vn 0.6843819618225098 -0.2370847463607788 0.6895018219947815 
vn 0.036209587007761 0.021740058436989784 0.9991076588630676 
vn 0.7846664190292358 0.01023062039166689 0.6198342442512512 
vn 0.8054723739624023 0.13922588527202606 0.5760474801063538 
vn 0.00203420571051538 0.30599191784858704 0.9520316123962402 
vn -0.850724458694458 -0.13094539940357208 -0.5090398192405701 
vn -0.3300594389438629 -0.22670260071754456 -0.9163330793380737 
vn -0.7625343203544617 0.08875064551830292 -0.640831708908081 
vn 0.03448748588562012 0.0673692524433136 -0.9971318244934082 
vn -0.6589037775993347 0.2825757563114166 -0.6971351504325867 
vn -0.002607339061796665 0.3504042327404022 -0.9365950226783752 
vn -0.3300594389438629 -0.22670260071754456 -0.9163330793380737 
vn 0.6805127859115601 -0.20733606815338135 -0.7027901411056519 
vn 0.03448748588562012 0.0673692524433136 -0.9971318244934082 
vn 0.7781484723091125 0.03610854968428612 -0.6270416975021362 
vn 0.8016619086265564 0.1604720950126648 -0.5758359432220459 
vn -0.002607339061796665 0.3504042327404022 -0.9365950226783752 
vn 0.40215831995010376 -0.644148051738739 -0.6506466269493103 
vn 0.5457481741905212 -0.6982268691062927 0.4632909297943115 
vn -0.7468831539154053 -0.48671954870224 -0.4530666768550873 
vn -0.52596116065979 -0.5271361470222473 0.6674521565437317 
vn -0.545251727104187 0.2400490790605545 0.8031666874885559 
vn -0.829841136932373 -0.11593084037303925 -0.5458242297172546 
vn -0.4605904221534729 0.8039840459823608 0.3761187493801117 
vn -0.6400575637817383 0.35500991344451904 -0.6813918948173523 
vn 0.6773386597633362 0.7013181447982788 0.22218161821365356 
vn 0.4987907111644745 0.2419368326663971 -0.8322706818580627 
vn -0.52596116065979 -0.5271361470222473 0.6674521565437317 
vn -0.545251727104187 0.2400490790605545 0.8031666874885559 
vn 0.5457481741905212 -0.6982268691062927 0.4632909297943115 
vn 0.7922912836074829 0.07207899540662766 0.6058709025382996 
vn -0.4605904221534729 0.8039840459823608 0.3761187493801117 
vn 0.6773386597633362 0.7013181447982788 0.22218161821365356 
vn -0.7468831539154053 -0.48671954870224 -0.4530666768550873 
vn -0.829841136932373 -0.11593084037303925 -0.5458242297172546 
vn 0.40215831995010376 -0.644148051738739 -0.6506466269493103 
vn 0.6223539113998413 -0.28055980801582336 -0.7307267189025879 
vn -0.6400575637817383 0.35500991344451904 -0.6813918948173523 
vn 0.4987907111644745 0.2419368326663971 -0.8322706818580627 
vn 0.5457481741905212 -0.6982268691062927 0.4632909297943115 
vn 0.7922912836074829 0.07207899540662766 0.6058709025382996 
vn 0.40215831995010376 -0.644148051738739 -0.6506466269493103 
vn 0.6223539113998413 -0.28055980801582336 -0.7307267189025879 
vn 0.6773386597633362 0.7013181447982788 0.22218161821365356 
vn 0.4987907111644745 0.2419368326663971 -0.8322706818580627 
vn 0.29386022686958313 -0.7919712066650391 0.5351896286010742 
vn -0.7229564189910889 -0.31876885890960693 0.6129605770111084 
vn 0.22387723624706268 -0.7921784520149231 -0.5677421689033508 
vn -0.7886645197868347 -0.3117262125015259 -0.529938817024231 
vn -0.6371967792510986 0.07435338199138641 0.7671060562133789 
vn -0.6832035183906555 0.03848663717508316 -0.729213297367096 
vn -0.597942054271698 0.5490342974662781 0.5839744210243225 
vn -0.6187423467636108 0.5411431193351746 -0.5694932341575623 
vn 0.5381553173065186 0.6022175550460815 -0.5896803140640259 
vn 0.5669132471084595 0.6012924313545227 0.5630773901939392 
vn -0.597942054271698 0.5490342974662781 0.5839744210243225 
vn -0.6371967792510986 0.07435338199138641 0.7671060562133789 
vn 0.5669132471084595 0.6012924313545227 0.5630773901939392 
vn 0.7534143924713135 -0.14040349423885345 0.6423816084861755 
vn -0.7229564189910889 -0.31876885890960693 0.6129605770111084 
vn 0.29386022686958313 -0.7919712066650391 0.5351896286010742 
vn 0.29386022686958313 -0.7919712066650391 0.5351896286010742 
vn 0.7534143924713135 -0.14040349423885345 0.6423816084861755 
vn 0.22387723624706268 -0.7921784520149231 -0.5677421689033508 
vn 0.6964742541313171 -0.1613786220550537 -0.699199914932251 
vn 0.5669132471084595 0.6012924313545227 0.5630773901939392 
vn 0.5381553173065186 0.6022175550460815 -0.5896803140640259 
vn 0.22387723624706268 -0.7921784520149231 -0.5677421689033508 
vn -0.7886645197868347 -0.3117262125015259 -0.529938817024231 
vn 0.6964742541313171 -0.1613786220550537 -0.699199914932251 
vn -0.6832035183906555 0.03848663717508316 -0.729213297367096 
vn 0.5381553173065186 0.6022175550460815 -0.5896803140640259 
vn -0.6187423467636108 0.5411431193351746 -0.5694932341575623 
vn 0.38003629446029663 -0.6736636757850647 0.6338375210762024 
vn -0.7500378489494324 -0.5059913992881775 0.4259296953678131 
vn 0.5429611802101135 -0.6948763132095337 -0.4715288281440735 
vn -0.5149222016334534 -0.4951866567134857 -0.6997461915016174 
vn -0.5315238237380981 0.2890772819519043 -0.7961891889572144 
vn -0.8529648780822754 -0.14040473103523254 0.5027303099632263 
vn -0.4549371600151062 0.8391707539558411 -0.2980344891548157 
vn -0.6375560164451599 0.2902600169181824 0.713632345199585 
vn 0.6894456744194031 0.7098973393440247 -0.14391031861305237 
vn 0.4932155907154083 0.15395069122314453 0.8561760783195496 
vn -0.5149222016334534 -0.4951866567134857 -0.6997461915016174 
vn -0.5315238237380981 0.2890772819519043 -0.7961891889572144 
vn 0.5429611802101135 -0.6948763132095337 -0.4715288281440735 
vn 0.7829165458679199 0.12179650366306305 -0.6100881099700928 
vn -0.4549371600151062 0.8391707539558411 -0.2980344891548157 
vn 0.6894456744194031 0.7098973393440247 -0.14391031861305237 
vn -0.7500378489494324 -0.5059913992881775 0.4259296953678131 
vn -0.8529648780822754 -0.14040473103523254 0.5027303099632263 
vn 0.38003629446029663 -0.6736636757850647 0.6338375210762024 
vn 0.6277846693992615 -0.34178051352500916 0.6993376016616821 
vn -0.6375560164451599 0.2902600169181824 0.713632345199585 
vn 0.4932155907154083 0.15395069122314453 0.8561760783195496 
vn 0.5429611802101135 -0.6948763132095337 -0.4715288281440735 
vn 0.7829165458679199 0.12179650366306305 -0.6100881099700928 
vn 0.38003629446029663 -0.6736636757850647 0.6338375210762024 
vn 0.6277846693992615 -0.34178051352500916 0.6993376016616821 
vn 0.6894456744194031 0.7098973393440247 -0.14391031861305237 
vn 0.4932155907154083 0.15395069122314453 0.8561760783195496 
vn 0.09048166871070862 -0.7503114342689514 -0.6548622250556946 
vn -0.8687678575515747 -0.2638610303401947 -0.41907039284706116 
vn 0.38592034578323364 -0.8270814418792725 0.40865859389305115 
vn -0.6127650737762451 -0.3732016086578369 0.6965914964675903 
vn -0.804054319858551 0.12823420763015747 -0.5805628895759583 
vn -0.4886484146118164 -0.04194037243723869 0.8714721202850342 
vn -0.7156466841697693 0.5860843062400818 -0.379941463470459 
vn -0.4633693993091583 0.478194922208786 0.7460681796073914 
vn 0.6597291827201843 0.5633341670036316 0.4974047541618347 
vn 0.41490110754966736 0.6589054465293884 -0.6274557113647461 
vn -0.7156466841697693 0.5860843062400818 -0.379941463470459 
vn -0.804054319858551 0.12823420763015747 -0.5805628895759583 
vn 0.41490110754966736 0.6589054465293884 -0.6274557113647461 
vn 0.5775279402732849 -0.06533286720514297 -0.8137524127960205 
vn -0.8687678575515747 -0.2638610303401947 -0.41907039284706116 
vn 0.09048166871070862 -0.7503114342689514 -0.6548622250556946 
vn 0.09048166871070862 -0.7503114342689514 -0.6548622250556946 
vn 0.5775279402732849 -0.06533286720514297 -0.8137524127960205 
vn 0.38592034578323364 -0.8270814418792725 0.40865859389305115 
vn 0.8453783392906189 -0.20192527770996094 0.4945325255393982 
vn 0.41490110754966736 0.6589054465293884 -0.6274557113647461 
vn 0.6597291827201843 0.5633341670036316 0.4974047541618347 
vn 0.38592034578323364 -0.8270814418792725 0.40865859389305115 
vn -0.6127650737762451 -0.3732016086578369 0.6965914964675903 
vn 0.8453783392906189 -0.20192527770996094 0.4945325255393982 
vn -0.4886484146118164 -0.04194037243723869 0.8714721202850342 
vn 0.6597291827201843 0.5633341670036316 0.4974047541618347 
vn -0.4633693993091583 0.478194922208786 0.7460681796073914 
vn 0.9952899217605591 0.00197906163521111 0.09692644327878952 
vn 0.9952899217605591 0.00197906163521111 0.09692644327878952 
vn 0.9952899217605591 0.00197906163521111 0.09692644327878952 
vn -0.9939079284667969 0.0004176227666903287 -0.1102154403924942 
vn -0.9939079284667969 0.0004176227666903287 -0.1102154403924942 
vn -0.9939079284667969 0.0004176227666903287 -0.1102154403924942 
vn 0.9952899217605591 0.00197906163521111 0.09692644327878952 
vn 0.9952899217605591 0.00197906163521111 0.09692644327878952 
vn 0.9952899217605591 0.00197906163521111 0.09692644327878952 
vn -0.9939079284667969 0.0004176227666903287 -0.1102154403924942 
vn -0.9939079284667969 0.0004176227666903287 -0.1102154403924942 
vn -0.9939079284667969 0.0004176227666903287 -0.1102154403924942 
vn 0.9788152575492859 -0.1993640512228012 -0.04663960263133049 
vn 0.9788152575492859 -0.1993640512228012 -0.04663960263133049 
vn 0.9788152575492859 -0.1993640512228012 -0.04663960263133049 
vn 0.9788152575492859 -0.1993640512228012 -0.04663960263133049 
vn 0.9976462125778198 0.06286099553108215 0.02740715630352497 
vn 0.9976462125778198 0.06286099553108215 0.02740715630352497 
vn 0.9976462125778198 0.06286099553108215 0.02740715630352497 
vn 0.9976462125778198 0.06286099553108215 0.02740715630352497 
vn 0.9866297245025635 -0.09155043959617615 0.13483668863773346 
vn 0.9866297245025635 -0.09155043959617615 0.13483668863773346 
vn 0.9866297245025635 -0.09155043959617615 0.13483668863773346 
vn 0.9866297245025635 -0.09155043959617615 0.13483668863773346 
vn 0.9943912029266357 0.06749700754880905 -0.08142993599176407 
vn 0.9943912029266357 0.06749700754880905 -0.08142993599176407 
vn 0.9943912029266357 0.06749700754880905 -0.08142993599176407 
vn 0.9943912029266357 0.06749700754880905 -0.08142993599176407 
vn -0.986349880695343 0.08967884629964828 -0.13810241222381592 
vn -0.986349880695343 0.08967884629964828 -0.13810241222381592 
vn -0.986349880695343 0.08967884629964828 -0.13810241222381592 
vn -0.986349880695343 0.08967884629964828 -0.13810241222381592 
vn -0.9945235848426819 -0.06913619488477707 0.07838132977485657 
vn -0.9945235848426819 -0.06913619488477707 0.07838132977485657 
vn -0.9945235848426819 -0.06913619488477707 0.07838132977485657 
vn -0.9945235848426819 -0.06913619488477707 0.07838132977485657 
vn -0.978789746761322 0.19944985210895538 0.046808477491140366 
vn -0.978789746761322 0.19944985210895538 0.046808477491140366 
vn -0.978789746761322 0.19944985210895538 0.046808477491140366 
vn -0.978789746761322 0.19944985210895538 0.046808477491140366 
vn -0.9978676438331604 -0.060796115547418594 -0.023760605603456497 
vn -0.9978676438331604 -0.060796115547418594 -0.023760605603456497 
vn -0.9978676438331604 -0.060796115547418594 -0.023760605603456497 
vn -0.9978676438331604 -0.060796115547418594 -0.023760605603456497 
vt 0.4733247458934784 0.795344352722168 
vt 0.488407164812088 0.7901071906089783 
vt 0.4824346899986267 0.7974392175674438 
vt 0.4922628402709961 0.7952279448509216 
vt 0.5105583071708679 0.792434811592102 
vt 0.4732491374015808 0.8050040006637573 
vt 0.48103606700897217 0.8033746480941772 
vt 0.4825102686882019 0.8118704557418823 
vt 0.4895033836364746 0.8058186173439026 
vt 0.5103315114974976 0.8084954023361206 
vt 0.486328125 0.8023272156715393 
vt 0.488407164812088 0.7991849184036255 
vt 0.49298104643821716 0.8006978631019592 
vt 0.5007679462432861 0.7976719737052917 
vt 0.5208401083946228 0.7948788404464722 
vt 0.5191390514373779 0.807564377784729 
vt 0.49797073006629944 0.803025484085083 
vt 0.5458641052246094 0.8813499212265015 
vt 0.45412203669548035 0.8819318413734436 
vt 0.5051906108856201 0.85737544298172 
vt 0.4315928816795349 0.8491123914718628 
vt 0.5028092265129089 0.8302586674690247 
vt 0.5730426907539368 0.8471338748931885 
vt 0.559585690498352 0.8138489127159119 
vt 0.5315754413604736 0.7977883219718933 
vt 0.5008057951927185 0.8068660497665405 
vt 0.4688264727592468 0.7976719737052917 
vt 0.45355501770973206 0.8053531050682068 
vt 0.5201596617698669 0.5147497653961182 
vt 0.4814140498638153 0.5147497653961182 
vt 0.48292607069015503 0.5162627100944519 
vt 0.48288828134536743 0.616466760635376 
vt 0.5217472910881042 0.6158848404884338 
vt 0.5194414854049683 0.6831530928611755 
vt 0.47948622703552246 0.6839677095413208 
vt 0.4820944666862488 0.6192598938941956 
vt 0.4791460335254669 0.6851315498352051 
vt 0.5228056907653809 0.5162627100944519 
vt 0.4791460335254669 0.6851315498352051 
vt 0.4820944666862488 0.6192598938941956 
vt 0.5186098217964172 0.684316873550415 
vt 0.5199328660964966 0.6186779737472534 
vt 0.5194414854049683 0.6831530928611755 
vt 0.5217472910881042 0.6158848404884338 
vt 0.5201596617698669 0.5147497653961182 
vt 0.5228056907653809 0.5162627100944519 
vt 0.4814140498638153 0.5147497653961182 
vt 0.4760085642337799 0.6310144066810608 
vt 0.38003283739089966 0.6210055947303772 
vt 0.45846909284591675 0.6945583820343018 
vt 0.3539882302284241 0.6924635171890259 
vt 0.4528746008872986 0.7379685044288635 
vt 0.3685036599636078 0.7435548305511475 
vt 0.38003283739089966 0.6210055947303772 
vt 0.44814953207969666 0.6399757266044617 
vt 0.3539882302284241 0.6924635171890259 
vt 0.45574745535850525 0.6983989477157593 
vt 0.4473935067653656 0.7345934510231018 
vt 0.3685036599636078 0.7435548305511475 
vt 0.4760085642337799 0.6310144066810608 
vt 0.38003283739089966 0.6210055947303772 
vt 0.45846909284591675 0.6945583820343018 
vt 0.3539882302284241 0.6924635171890259 
vt 0.4528746008872986 0.7379685044288635 
vt 0.3685036599636078 0.7435548305511475 
vt 0.38003283739089966 0.6210055947303772 
vt 0.44814953207969666 0.6399757266044617 
vt 0.3539882302284241 0.6924635171890259 
vt 0.45574745535850525 0.6983989477157593 
vt 0.4473935067653656 0.7345934510231018 
vt 0.3685036599636078 0.7435548305511475 
vt 0.3332357108592987 0.501947820186615 
vt 0.32435256242752075 0.49950385093688965 
vt 0.33138346672058105 0.503809928894043 
vt 0.32276493310928345 0.5013659596443176 
vt 0.2965691387653351 0.6256608366966248 
vt 0.3149024248123169 0.6303160786628723 
vt 0.2974763512611389 0.7479772567749023 
vt 0.3180398643016815 0.7468134760856628 
vt 0.29834574460983276 0.7492574453353882 
vt 0.31955188512802124 0.7478609085083008 
vt 0.32276493310928345 0.5013659596443176 
vt 0.2965691387653351 0.6256608366966248 
vt 0.334823340177536 0.5040426850318909 
vt 0.30753129720687866 0.6299669742584229 
vt 0.2974763512611389 0.7479772567749023 
vt 0.3087787330150604 0.7537963390350342 
vt 0.3117271661758423 0.5022969841957092 
vt 0.29524609446525574 0.6288031339645386 
vt 0.3332357108592987 0.501947820186615 
vt 0.3159986436367035 0.6300833225250244 
vt 0.29838356375694275 0.7453005313873291 
vt 0.31955188512802124 0.7478609085083008 
vt 0.32435256242752075 0.49950385093688965 
vt 0.2970605194568634 0.6254280805587769 
vt 0.3332357108592987 0.501947820186615 
vt 0.3159986436367035 0.6300833225250244 
vt 0.29834574460983276 0.7492574453353882 
vt 0.31955188512802124 0.7478609085083008 
vt 0.4542354345321655 0.1432616114616394 
vt 0.45514264702796936 0.1482659876346588 
vt 0.48810476064682007 0.14605474472045898 
vt 0.48829376697540283 0.15094275772571564 
vt 0.41564100980758667 0.2601081430912018 
vt 0.4489433467388153 0.2622029781341553 
vt 0.39031460881233215 0.474132776260376 
vt 0.4208953082561493 0.47506383061408997 
vt 0.4181358516216278 0.48076650500297546 
vt 0.3863077461719513 0.4798354506492615 
vt 0.39031460881233215 0.474132776260376 
vt 0.41564100980758667 0.2601081430912018 
vt 0.41465818881988525 0.48030099272727966 
vt 0.4415344297885895 0.2546382248401642 
vt 0.45514264702796936 0.1482659876346588 
vt 0.4825480878353119 0.1437271237373352 
vt 0.4542354345321655 0.1432616114616394 
vt 0.4132217764854431 0.2541727125644684 
vt 0.48810476064682007 0.14605474472045898 
vt 0.4479983150959015 0.25650033354759216 
vt 0.3863077461719513 0.4798354506492615 
vt 0.4181358516216278 0.48076650500297546 
vt 0.45782649517059326 0.14547283947467804 
vt 0.48829376697540283 0.15094275772571564 
vt 0.4177200496196747 0.256034791469574 
vt 0.4489433467388153 0.2622029781341553 
vt 0.387857586145401 0.48030099272727966 
vt 0.4208953082561493 0.47506383061408997 
vt 0.3332357108592987 0.501947820186615 
vt 0.33138346672058105 0.503809928894043 
vt 0.32435256242752075 0.49950385093688965 
vt 0.32276493310928345 0.5013659596443176 
vt 0.2965691387653351 0.6256608366966248 
vt 0.3149024248123169 0.6303160786628723 
vt 0.2974763512611389 0.7479772567749023 
vt 0.3180398643016815 0.7468134760856628 
vt 0.29834574460983276 0.7492574453353882 
vt 0.31955188512802124 0.7478609085083008 
vt 0.32276493310928345 0.5013659596443176 
vt 0.2965691387653351 0.6256608366966248 
vt 0.334823340177536 0.5040426850318909 
vt 0.30753129720687866 0.6299669742584229 
vt 0.2974763512611389 0.7479772567749023 
vt 0.3087787330150604 0.7537963390350342 
vt 0.3117271661758423 0.5022969841957092 
vt 0.29524609446525574 0.6288031339645386 
vt 0.3332357108592987 0.501947820186615 
vt 0.3159986436367035 0.6300833225250244 
vt 0.29838356375694275 0.7453005313873291 
vt 0.31955188512802124 0.7478609085083008 
vt 0.32435256242752075 0.49950385093688965 
vt 0.2970605194568634 0.6254280805587769 
vt 0.3332357108592987 0.501947820186615 
vt 0.3159986436367035 0.6300833225250244 
vt 0.29834574460983276 0.7492574453353882 
vt 0.31955188512802124 0.7478609085083008 
vt 0.4542354345321655 0.1432616114616394 
vt 0.45514264702796936 0.1482659876346588 
vt 0.48810476064682007 0.14605474472045898 
vt 0.48829376697540283 0.15094275772571564 
vt 0.41564100980758667 0.2601081430912018 
vt 0.4489433467388153 0.2622029781341553 
vt 0.39031460881233215 0.474132776260376 
vt 0.4208953082561493 0.47506383061408997 
vt 0.4181358516216278 0.48076650500297546 
vt 0.3863077461719513 0.4798354506492615 
vt 0.39031460881233215 0.474132776260376 
vt 0.41564100980758667 0.2601081430912018 
vt 0.41465818881988525 0.48030099272727966 
vt 0.4415344297885895 0.2546382248401642 
vt 0.45514264702796936 0.1482659876346588 
vt 0.4825480878353119 0.1437271237373352 
vt 0.4542354345321655 0.1432616114616394 
vt 0.4132217764854431 0.2541727125644684 
vt 0.48810476064682007 0.14605474472045898 
vt 0.4479983150959015 0.25650033354759216 
vt 0.3863077461719513 0.4798354506492615 
vt 0.4181358516216278 0.48076650500297546 
vt 0.45782649517059326 0.14547283947467804 
vt 0.48829376697540283 0.15094275772571564 
vt 0.4177200496196747 0.256034791469574 
vt 0.4489433467388153 0.2622029781341553 
vt 0.387857586145401 0.48030099272727966 
vt 0.4208953082561493 0.47506383061408997 
vt 0.48602572083473206 1.0096017122268677 
vt 0.5124861598014832 1.0096017122268677 
vt 0.5124861598014832 0.8931043744087219 
vt 0.5124483704566956 1.0096017122268677 
vt 0.48606353998184204 0.8931043744087219 
vt 0.48606353998184204 1.0096017122268677 
vt 0.48602572083473206 1.0096017122268677 
vt 0.5124861598014832 0.8931043744087219 
vt 0.48602572083473206 0.8931043744087219 
vt 0.5124483704566956 1.0096017122268677 
vt 0.5124483704566956 0.8931043744087219 
vt 0.48606353998184204 0.8931043744087219 
vt 0.27396437525749207 0.41896820068359375 
vt 0.2634179890155792 0.507301390171051 
vt 0.3819984793663025 0.4254855215549469 
vt 0.3694108724594116 0.5137023329734802 
vt 0.3694108724594116 0.5137023329734802 
vt 0.2634179890155792 0.507301390171051 
vt 0.3819984793663025 0.4254855215549469 
vt 0.27396437525749207 0.41896820068359375 
vt 0.5019019842147827 0.14361074566841125 
vt 0.4171908497810364 0.1439598947763443 
vt 0.48167866468429565 0.056324999779462814 
vt 0.38494694232940674 0.06226043030619621 
vt 0.38494694232940674 0.06226043030619621 
vt 0.41953447461128235 0.1439598947763443 
vt 0.48167866468429565 0.056324999779462814 
vt 0.5042078495025635 0.14361074566841125 
vt 0.38494694232940674 0.06226043030619621 
vt 0.4171908497810364 0.1439598947763443 
vt 0.48167866468429565 0.056324999779462814 
vt 0.5019019842147827 0.14361074566841125 
vt 0.5042078495025635 0.14361074566841125 
vt 0.41953447461128235 0.1439598947763443 
vt 0.48167866468429565 0.056324999779462814 
vt 0.38494694232940674 0.06226043030619621 
vt 0.3694108724594116 0.5137023329734802 
vt 0.2634179890155792 0.507301390171051 
vt 0.3819984793663025 0.4254855215549469 
vt 0.27396437525749207 0.41896820068359375 
vt 0.27396437525749207 0.41896820068359375 
vt 0.2634179890155792 0.507301390171051 
vt 0.3819984793663025 0.4254855215549469 
vt 0.3694108724594116 0.5137023329734802 
s on 
f 1/1/1 2/2/2 3/3/3 
f 2/2/2 2/2/2 3/3/3 
f 3/3/3 2/2/2 4/4/4 
f 2/2/2 5/5/5 4/4/4 
f 4/4/4 5/5/5 5/5/5 
f 5/5/5 1/1/1 5/5/5 
f 5/5/5 1/1/1 1/1/1 
f 1/1/1 3/3/3 1/1/1 
f 1/1/1 3/3/3 6/6/6 
f 3/3/3 7/7/7 6/6/6 
f 6/6/6 7/7/7 8/8/8 
f 7/7/7 9/9/9 8/8/8 
f 8/8/8 9/9/9 10/10/10 
f 9/9/9 10/10/10 10/10/10 
f 10/10/10 10/10/10 9/9/9 
f 10/10/10 9/9/9 9/9/9 
f 9/9/9 9/9/9 11/11/11 
f 9/9/9 7/7/7 11/11/11 
f 11/11/11 7/7/7 11/11/11 
f 7/7/7 3/3/3 11/11/11 
f 11/11/11 3/3/3 12/12/12 
f 3/3/3 4/4/4 12/12/12 
f 12/12/12 4/4/4 13/13/13 
f 4/4/4 4/4/4 13/13/13 
f 13/13/13 4/4/4 14/14/14 
f 4/4/4 5/5/5 14/14/14 
f 14/14/14 5/5/5 10/10/10 
f 5/5/5 15/15/15 10/10/10 
f 10/10/10 15/15/15 16/16/16 
f 15/15/15 16/16/16 16/16/16 
f 16/16/16 16/16/16 12/12/12 
f 16/16/16 12/12/12 12/12/12 
f 12/12/12 12/12/12 11/11/11 
f 12/12/12 13/13/13 11/11/11 
f 11/11/11 13/13/13 9/9/9 
f 13/13/13 17/17/17 9/9/9 
f 9/9/9 17/17/17 10/10/10 
f 17/17/17 17/17/17 10/10/10 
f 10/10/10 17/17/17 14/14/14 
f 17/17/17 13/13/13 14/14/14 
f 14/14/14 13/13/13 13/13/13 
f 13/13/13 18/18/18 13/13/13 
f 13/13/13 18/18/18 18/18/18 
f 18/18/18 19/19/19 18/18/18 
f 18/18/18 19/19/19 20/20/20 
f 19/19/19 21/21/21 20/20/20 
f 20/20/20 21/21/21 20/20/20 
f 21/21/21 22/22/22 20/20/20 
f 20/20/20 22/22/22 23/23/23 
f 22/22/22 22/22/22 23/23/23 
f 23/23/23 22/22/22 24/24/24 
f 22/22/22 22/22/22 24/24/24 
f 24/24/24 22/22/22 25/25/25 
f 22/22/22 26/26/26 25/25/25 
f 25/25/25 26/26/26 27/27/27 
f 26/26/26 22/22/22 27/27/27 
f 27/27/27 22/22/22 28/28/28 
f 22/22/22 21/21/21 28/28/28 
f 28/28/28 21/21/21 21/21/21 
f 21/21/21 18/18/18 21/21/21 
f 21/21/21 18/18/18 18/18/18 
f 18/18/18 20/20/20 18/18/18 
f 18/18/18 20/20/20 23/23/23 
f 20/20/20 23/23/23 23/23/23 
f 23/23/23 23/23/23 29/29/29 
f 23/23/23 29/29/29 29/29/29 
f 29/29/29 29/29/29 30/30/30 
f 29/29/29 31/31/31 30/30/30 
f 30/30/30 31/31/31 32/32/32 
f 31/31/31 33/33/33 32/32/32 
f 32/32/32 33/33/33 32/32/32 
f 33/33/33 34/34/34 32/32/32 
f 32/32/32 34/34/34 32/32/32 
f 34/34/34 35/35/35 32/32/32 
f 32/32/32 35/35/35 36/36/36 
f 35/35/35 37/37/37 36/36/36 
f 36/36/36 37/37/37 37/37/37 
f 37/37/37 29/29/29 37/37/37 
f 37/37/37 29/29/29 29/29/29 
f 29/29/29 38/38/38 29/29/29 
f 29/29/29 38/38/38 31/31/31 
f 38/38/38 33/33/33 31/31/31 
f 31/31/31 33/33/33 33/33/33 
f 33/33/33 32/32/32 33/33/33 
f 33/33/33 32/32/32 32/32/32 
f 32/32/32 36/36/36 32/32/32 
f 32/32/32 36/36/36 30/30/30 
f 36/36/36 30/30/30 30/30/30 
f 30/30/30 30/30/30 39/39/39 
f 30/30/30 39/39/39 39/39/39 
f 39/39/39 39/39/39 40/40/40 
f 39/39/39 41/41/41 40/40/40 
f 40/40/40 41/41/41 42/42/42 
f 41/41/41 43/43/43 42/42/42 
f 42/42/42 43/43/43 42/42/42 
f 43/43/43 44/44/44 42/42/42 
f 42/42/42 44/44/44 45/45/45 
f 44/44/44 46/46/46 45/45/45 
f 45/45/45 46/46/46 46/46/46 
f 46/46/46 40/40/40 46/46/46 
f 46/46/46 40/40/40 40/40/40 
f 40/40/40 42/42/42 40/40/40 
f 40/40/40 42/42/42 47/47/47 
f 42/42/42 45/45/45 47/47/47 
f 47/47/47 45/45/45 45/45/45 
f 45/45/45 48/48/48 45/45/45 
f 45/45/45 48/48/48 48/48/48 
f 48/48/48 49/49/49 48/48/48 
f 48/48/48 49/49/49 50/50/50 
f 49/49/49 51/51/51 50/50/50 
f 50/50/50 51/51/51 52/52/52 
f 51/51/51 53/53/53 52/52/52 
f 52/52/52 53/53/53 53/53/53 
f 53/53/53 54/54/54 53/53/53 
f 53/53/53 54/54/54 54/54/54 
f 54/54/54 55/55/55 54/54/54 
f 54/54/54 55/55/55 56/56/56 
f 55/55/55 57/57/57 56/56/56 
f 56/56/56 57/57/57 56/56/56 
f 57/57/57 58/58/58 56/56/56 
f 56/56/56 58/58/58 59/59/59 
f 58/58/58 59/59/59 59/59/59 
f 59/59/59 59/59/59 60/60/60 
f 59/59/59 60/60/60 60/60/60 
f 60/60/60 60/60/60 61/61/61 
f 60/60/60 62/62/62 61/61/61 
f 61/61/61 62/62/62 63/63/63 
f 62/62/62 64/64/64 63/63/63 
f 63/63/63 64/64/64 65/65/65 
f 64/64/64 65/65/65 65/65/65 
f 65/65/65 65/65/65 66/66/66 
f 65/65/65 66/66/66 66/66/66 
f 66/66/66 66/66/66 67/67/67 
f 66/66/66 68/68/68 67/67/67 
f 67/67/67 68/68/68 69/69/69 
f 68/68/68 68/68/68 69/69/69 
f 69/69/69 68/68/68 70/70/70 
f 68/68/68 71/71/71 70/70/70 
f 70/70/70 71/71/71 71/71/71 
f 71/71/71 72/72/72 71/71/71 
f 71/71/71 72/72/72 72/72/72 
f 72/72/72 73/73/73 72/72/72 
f 72/72/72 73/73/73 74/74/74 
f 73/73/73 75/75/75 74/74/74 
f 74/74/74 75/75/75 74/74/74 
f 75/75/75 76/76/76 74/74/74 
f 74/74/74 76/76/76 77/77/77 
f 76/76/76 78/78/78 77/77/77 
f 77/77/77 78/78/78 79/79/79 
f 78/78/78 80/80/80 79/79/79 
f 79/79/79 80/80/80 81/81/81 
f 80/80/80 81/81/81 81/81/81 
f 81/81/81 81/81/81 82/82/82 
f 81/81/81 82/82/82 82/82/82 
f 82/82/82 82/82/82 83/83/83 
f 82/82/82 84/84/84 83/83/83 
f 83/83/83 84/84/84 83/83/83 
f 84/84/84 85/85/85 83/83/83 
f 83/83/83 85/85/85 86/86/86 
f 85/85/85 87/87/87 86/86/86 
f 86/86/86 87/87/87 87/87/87 
f 87/87/87 88/88/88 87/87/87 
f 87/87/87 88/88/88 88/88/88 
f 88/88/88 89/89/89 88/88/88 
f 88/88/88 89/89/89 90/90/90 
f 89/89/89 89/89/89 90/90/90 
f 90/90/90 89/89/89 91/91/91 
f 89/89/89 92/92/92 91/91/91 
f 91/91/91 92/92/92 93/93/93 
f 92/92/92 93/93/93 93/93/93 
f 93/93/93 93/93/93 94/94/94 
f 93/93/93 94/94/94 94/94/94 
f 94/94/94 94/94/94 95/95/95 
f 94/94/94 96/96/96 95/95/95 
f 95/95/95 96/96/96 95/95/95 
f 96/96/96 97/97/97 95/95/95 
f 95/95/95 97/97/97 98/98/98 
f 97/97/97 99/99/99 98/98/98 
f 98/98/98 99/99/99 99/99/99 
f 99/99/99 100/100/100 99/99/99 
f 99/99/99 100/100/100 100/100/100 
f 100/100/100 101/101/101 100/100/100 
f 100/100/100 101/101/101 102/102/102 
f 101/101/101 101/101/101 102/102/102 
f 102/102/102 101/101/101 103/103/103 
f 101/101/101 104/104/104 103/103/103 
f 103/103/103 104/104/104 105/105/105 
f 104/104/104 106/106/106 105/105/105 
f 105/105/105 106/106/106 107/107/107 
f 106/106/106 106/106/106 107/107/107 
f 107/107/107 106/106/106 108/108/108 
f 106/106/106 109/109/109 108/108/108 
f 108/108/108 109/109/109 109/109/109 
f 109/109/109 110/110/110 109/109/109 
f 109/109/109 110/110/110 110/110/110 
f 110/110/110 111/111/111 110/110/110 
f 110/110/110 111/111/111 112/112/112 
f 111/111/111 111/111/111 112/112/112 
f 112/112/112 111/111/111 113/113/113 
f 111/111/111 114/114/114 113/113/113 
f 113/113/113 114/114/114 115/115/115 
f 114/114/114 115/115/115 115/115/115 
f 115/115/115 115/115/115 116/116/116 
f 115/115/115 116/116/116 116/116/116 
f 116/116/116 116/116/116 117/117/117 
f 116/116/116 118/118/118 117/117/117 
f 117/117/117 118/118/118 117/117/117 
f 118/118/118 119/119/119 117/117/117 
f 117/117/117 119/119/119 120/120/120 
f 119/119/119 121/121/121 120/120/120 
f 120/120/120 121/121/121 121/121/121 
f 121/121/121 122/122/122 121/121/121 
f 121/121/121 122/122/122 122/122/122 
f 122/122/122 123/123/123 122/122/122 
f 122/122/122 123/123/123 124/124/124 
f 123/123/123 125/125/125 124/124/124 
f 124/124/124 125/125/125 126/126/126 
f 125/125/125 127/127/127 126/126/126 
f 126/126/126 127/127/127 127/127/127 
f 127/127/127 128/128/128 127/127/127 
f 127/127/127 128/128/128 128/128/128 
f 128/128/128 129/129/129 128/128/128 
f 128/128/128 129/129/129 130/130/130 
f 129/129/129 129/129/129 130/130/130 
f 130/130/130 129/129/129 131/131/131 
f 129/129/129 129/129/129 131/131/131 
f 131/131/131 129/129/129 132/132/132 
f 129/129/129 133/133/133 132/132/132 
f 132/132/132 133/133/133 134/134/134 
f 133/133/133 135/135/135 134/134/134 
f 134/134/134 135/135/135 136/136/136 
f 135/135/135 137/137/137 136/136/136 
f 136/136/136 137/137/137 137/137/137 
f 137/137/137 138/138/138 137/137/137 
f 137/137/137 138/138/138 138/138/138 
f 138/138/138 139/139/139 138/138/138 
f 138/138/138 139/139/139 140/140/140 
f 139/139/139 139/139/139 140/140/140 
f 140/140/140 139/139/139 141/141/141 
f 139/139/139 142/142/142 141/141/141 
f 141/141/141 142/142/142 143/143/143 
f 142/142/142 143/143/143 143/143/143 
f 143/143/143 143/143/143 144/144/144 
f 143/143/143 144/144/144 144/144/144 
f 144/144/144 144/144/144 145/145/145 
f 144/144/144 146/146/146 145/145/145 
f 145/145/145 146/146/146 145/145/145 
f 146/146/146 147/147/147 145/145/145 
f 145/145/145 147/147/147 148/148/148 
f 147/147/147 149/149/149 148/148/148 
f 148/148/148 149/149/149 149/149/149 
f 149/149/149 150/150/150 149/149/149 
f 149/149/149 150/150/150 150/150/150 
f 150/150/150 151/151/151 150/150/150 
f 150/150/150 151/151/151 152/152/152 
f 151/151/151 151/151/151 152/152/152 
f 152/152/152 151/151/151 153/153/153 
f 151/151/151 154/154/154 153/153/153 
f 153/153/153 154/154/154 155/155/155 
f 154/154/154 155/155/155 155/155/155 
f 155/155/155 155/155/155 156/156/156 
f 155/155/155 156/156/156 156/156/156 
f 156/156/156 156/156/156 157/157/157 
f 156/156/156 158/158/158 157/157/157 
f 157/157/157 158/158/158 157/157/157 
f 158/158/158 159/159/159 157/157/157 
f 157/157/157 159/159/159 160/160/160 
f 159/159/159 161/161/161 160/160/160 
f 160/160/160 161/161/161 162/162/162 
f 161/161/161 163/163/163 162/162/162 
f 162/162/162 163/163/163 162/162/162 
f 163/163/163 164/164/164 162/162/162 
f 162/162/162 164/164/164 165/165/165 
f 164/164/164 165/165/165 165/165/165 
f 165/165/165 165/165/165 166/166/166 
f 165/165/165 166/166/166 166/166/166 
f 166/166/166 166/166/166 167/167/167 
f 166/166/166 168/168/168 167/167/167 
f 167/167/167 168/168/168 167/167/167 
f 168/168/168 169/169/169 167/167/167 
f 167/167/167 169/169/169 170/170/170 
f 169/169/169 171/171/171 170/170/170 
f 170/170/170 171/171/171 171/171/171 
f 171/171/171 172/172/172 171/171/171 
f 171/171/171 172/172/172 172/172/172 
f 172/172/172 173/173/173 172/172/172 
f 172/172/172 173/173/173 174/174/174 
f 173/173/173 173/173/173 174/174/174 
f 174/174/174 173/173/173 175/175/175 
f 173/173/173 176/176/176 175/175/175 
f 175/175/175 176/176/176 177/177/177 
f 176/176/176 177/177/177 177/177/177 
f 177/177/177 177/177/177 178/178/178 
f 177/177/177 178/178/178 178/178/178 
f 178/178/178 178/178/178 179/179/179 
f 178/178/178 180/180/180 179/179/179 
f 179/179/179 180/180/180 181/181/181 
f 180/180/180 182/182/182 181/181/181 
f 181/181/181 182/182/182 183/183/183 
f 182/182/182 183/183/183 183/183/183 
f 183/183/183 183/183/183 184/184/184 
f 183/183/183 184/184/184 184/184/184 
f 184/184/184 184/184/184 185/185/185 
f 184/184/184 186/186/186 185/185/185 
f 185/185/185 186/186/186 186/186/186 
f 186/186/186 187/187/187 186/186/186 
f 186/186/186 187/187/187 187/187/187 
f 187/187/187 188/188/188 187/187/187 
f 187/187/187 188/188/188 189/189/189 
f 188/188/188 189/189/189 189/189/189 
f 189/189/189 189/189/189 190/190/190 
f 189/189/189 190/190/190 190/190/190 
f 190/190/190 190/190/190 191/191/191 
f 190/190/190 192/192/192 191/191/191 
f 191/191/191 192/192/192 192/192/192 
f 192/192/192 193/193/193 192/192/192 
f 192/192/192 193/193/193 193/193/193 
f 193/193/193 194/194/194 193/193/193 
f 193/193/193 194/194/194 195/195/195 
f 194/194/194 195/195/195 195/195/195 
f 195/195/195 195/195/195 196/196/196 
f 195/195/195 196/196/196 196/196/196 
f 196/196/196 196/196/196 197/197/197 
f 196/196/196 198/198/198 197/197/197 
f 197/197/197 198/198/198 199/199/199 
f 198/198/198 199/199/199 199/199/199 
f 199/199/199 199/199/199 200/200/200 
f 199/199/199 200/200/200 200/200/200 
f 200/200/200 200/200/200 201/201/201 
f 200/200/200 202/202/202 201/201/201 
f 201/201/201 202/202/202 203/203/203 
f 202/202/202 203/203/203 203/203/203 
f 203/203/203 203/203/203 204/204/204 
f 203/203/203 204/204/204 204/204/204 
f 204/204/204 204/204/204 205/205/205 
f 204/204/204 206/206/206 205/205/205 
f 205/205/205 206/206/206 207/207/207 
f 206/206/206 207/207/207 207/207/207 
f 207/207/207 207/207/207 208/208/208 
f 207/207/207 208/208/208 208/208/208 
f 208/208/208 208/208/208 209/209/209 
f 208/208/208 210/210/210 209/209/209 
f 209/209/209 210/210/210 211/211/211 
f 210/210/210 211/211/211 211/211/211 
f 211/211/211 211/211/211 212/212/212 
f 211/211/211 212/212/212 212/212/212 
f 212/212/212 212/212/212 213/213/213 
f 212/212/212 214/214/214 213/213/213 
f 213/213/213 214/214/214 215/215/215 
f 214/214/214 215/215/215 215/215/215 
f 215/215/215 215/215/215 216/216/216 
f 215/215/215 216/216/216 216/216/216 
f 216/216/216 216/216/216 217/217/217 
f 216/216/216 218/218/218 217/217/217 
f 217/217/217 218/218/218 219/219/219 
f 218/218/218 219/219/219 219/219/219 
f 219/219/219 219/219/219 220/220/220 
f 219/219/219 220/220/220 220/220/220 
f 220/220/220 220/220/220 221/221/221 
f 220/220/220 222/222/222 221/221/221 
f 221/221/221 222/222/222 223/223/223 
f 222/222/222 223/223/223 223/223/223 
f 223/223/223 223/223/223 224/224/224 
f 223/223/223 224/224/224 224/224/224 
f 224/224/224 224/224/224 225/225/225 
f 224/224/224 226/226/226 225/225/225 
f 225/225/225 226/226/226 227/227/227 

